<?xml version="1.0" standalone="no"?>
<!DOCTYPE svg PUBLIC "-//W3C//DTD SVG 20010904//EN"
 "http://www.w3.org/TR/2001/REC-SVG-20010904/DTD/svg10.dtd">
<svg version="1.0" xmlns="http://www.w3.org/2000/svg"
 width="2695.000000pt" height="294.000000pt" viewBox="0 0 2695.000000 294.000000"
 preserveAspectRatio="xMidYMid meet">

<g transform="translate(0.000000,294.000000) scale(0.100000,-0.100000)"
fill="#000000" stroke="none">
<path d="M92 2573 l-92 -4 0 -1099 0 -1100 400 0 c244 0 420 4 452 11 61 12
168 60 216 96 52 39 99 120 122 207 19 76 20 109 20 785 0 594 -2 716 -15 764
-34 130 -97 209 -217 273 -120 63 -147 66 -488 69 -168 1 -347 0 -398 -2z
m698 -315 c30 -15 53 -37 67 -63 l23 -40 0 -684 c0 -664 -1 -686 -20 -726 -34
-71 -62 -79 -298 -83 -149 -3 -207 -1 -217 8 -13 11 -15 122 -15 799 0 599 3
790 12 799 9 9 69 12 208 12 183 0 199 -1 240 -22z"/>
<path d="M2150 2405 l0 -165 175 0 175 0 0 165 0 165 -175 0 -175 0 0 -165z"/>
<path d="M11190 2266 l0 -304 -242 -5 c-260 -5 -311 -13 -411 -63 -107 -55
-178 -152 -209 -289 -19 -86 -19 -795 1 -880 41 -183 136 -280 321 -331 51
-14 105 -18 250 -18 180 -1 186 0 242 26 l57 26 3 -26 3 -27 153 -3 152 -3 0
1101 0 1100 -160 0 -160 0 0 -304z m-92 -592 l92 -7 0 -452 0 -452 -23 -34
c-40 -60 -72 -69 -247 -69 -176 0 -219 12 -261 71 l-24 34 0 402 c0 390 1 402
21 429 43 59 67 69 182 75 59 3 121 6 138 7 17 1 72 -1 122 -4z"/>
<path d="M13630 2425 l0 -145 245 0 245 0 0 -955 0 -955 165 0 165 0 0 955 0
955 245 0 245 0 0 145 0 145 -655 0 -655 0 0 -145z"/>
<path d="M20980 2405 l0 -165 175 0 175 0 0 165 0 165 -175 0 -175 0 0 -165z"/>
<path d="M25660 2430 l0 -140 223 0 224 0 7 -842 c7 -811 8 -843 28 -895 26
-72 67 -116 136 -150 l57 -28 308 -3 307 -3 0 145 0 146 -243 0 c-176 0 -246
3 -255 12 -9 9 -12 235 -12 955 l0 943 -390 0 -390 0 0 -140z"/>
<path d="M1710 1815 l0 -145 225 0 225 0 0 -650 0 -650 390 0 390 0 0 145 0
145 -225 0 -225 0 -2 358 c-2 196 -2 489 0 650 l4 292 -391 0 -391 0 0 -145z"/>
<path d="M3875 1945 c-169 -31 -274 -120 -311 -264 -12 -50 -15 -97 -12 -210
5 -166 22 -227 83 -298 77 -90 170 -122 382 -132 201 -8 197 -5 201 -172 3
-81 0 -131 -9 -151 -22 -54 -47 -58 -364 -58 l-285 0 0 -146 0 -146 313 5
c338 4 379 10 480 64 65 36 131 111 158 181 17 45 23 85 27 193 7 218 -17 316
-104 409 -80 85 -181 120 -352 120 -116 0 -164 12 -192 47 -17 22 -20 40 -20
120 0 165 -4 163 345 163 l265 0 0 145 0 145 -267 -1 c-173 0 -293 -5 -338
-14z"/>
<path d="M5674 1950 c-227 -33 -352 -154 -391 -377 -22 -127 -14 -791 10 -876
48 -164 147 -259 319 -303 48 -13 131 -18 351 -21 l287 -5 0 146 0 146 -259 0
c-166 0 -270 4 -292 11 -47 16 -87 56 -99 98 -6 21 -10 193 -10 405 0 353 1
372 21 412 15 31 32 48 63 64 40 19 61 20 309 21 l267 2 0 143 0 144 -262 -1
c-145 -1 -286 -5 -314 -9z"/>
<path d="M7251 1945 c-193 -36 -309 -141 -356 -320 -22 -86 -22 -819 0 -914
41 -172 139 -268 325 -318 91 -25 414 -25 513 0 177 44 276 138 324 307 16 58
18 107 18 465 0 348 -2 408 -17 462 -23 81 -50 134 -96 185 -49 54 -96 83
-189 114 -71 25 -94 27 -263 30 -130 2 -207 -1 -259 -11z m435 -301 c15 -11
37 -33 48 -48 20 -27 21 -39 21 -431 0 -392 -1 -404 -21 -432 -11 -15 -40 -38
-64 -50 -40 -21 -58 -23 -195 -23 -137 0 -155 2 -195 22 -26 14 -53 37 -65 58
-19 33 -20 52 -20 425 0 376 1 391 21 425 11 19 38 45 60 58 37 21 48 22 211
20 155 -3 174 -5 199 -24z"/>
<path d="M8640 1815 l0 -145 115 0 115 0 0 -505 0 -505 -115 0 -115 0 0 -145
0 -145 440 0 440 0 0 145 0 145 -165 0 -165 0 0 435 c0 414 1 438 20 475 11
21 34 49 52 62 32 22 41 23 251 26 l217 3 0 150 0 149 -197 0 c-216 -1 -271
-8 -320 -46 -17 -13 -34 -24 -37 -24 -3 0 -6 16 -6 35 l0 35 -265 0 -265 0 0
-145z"/>
<path d="M15808 1950 c-209 -35 -323 -143 -357 -335 -6 -33 -12 -233 -13 -450
-3 -349 -1 -397 15 -455 37 -134 96 -215 195 -268 108 -58 154 -64 505 -69
l317 -5 0 146 0 146 -293 0 c-284 0 -294 1 -337 22 -70 36 -84 69 -88 220 l-4
128 412 0 412 0 -5 283 c-3 210 -8 295 -19 332 -50 167 -155 266 -317 301 -72
15 -341 17 -423 4z m374 -297 c53 -32 71 -74 76 -183 2 -54 2 -110 -2 -124
l-6 -26 -252 0 -251 0 5 129 c6 144 23 190 76 210 15 5 94 10 175 10 125 1
154 -2 179 -16z"/>
<path d="M17170 1815 l0 -145 110 0 110 0 0 -505 0 -505 -110 0 -110 0 0 -145
0 -145 440 0 440 0 0 145 0 145 -170 0 -170 0 0 428 c0 394 2 430 19 467 21
46 54 79 94 94 17 7 112 11 233 11 l204 0 0 150 0 150 -203 0 c-217 0 -268 -8
-326 -49 l-31 -22 0 35 0 36 -265 0 -265 0 0 -145z"/>
<path d="M18710 1165 l0 -795 155 0 155 0 0 619 0 618 23 34 c32 48 62 60 130
56 78 -5 96 -23 107 -113 5 -38 9 -327 10 -641 l0 -573 150 0 150 0 0 593 c0
385 4 605 11 630 16 60 56 98 111 104 56 7 114 -11 131 -40 9 -17 13 -173 15
-655 l3 -632 149 0 150 0 0 628 c0 683 -2 702 -58 805 -14 27 -46 64 -70 83
-71 54 -130 69 -267 69 -134 0 -175 -14 -246 -82 l-36 -34 -16 25 c-9 13 -47
39 -84 58 -65 32 -72 33 -189 33 -117 0 -122 -1 -157 -28 l-37 -28 0 30 0 31
-145 0 -145 0 0 -795z"/>
<path d="M20540 1815 l0 -145 225 0 225 0 0 -650 0 -650 390 0 390 0 0 145 0
145 -230 0 -230 0 0 650 0 650 -385 0 -385 0 0 -145z"/>
<path d="M22280 1165 l0 -795 160 0 160 0 2 604 c3 597 3 605 24 633 45 60 73
68 244 68 171 0 199 -8 244 -68 21 -28 21 -36 24 -633 l2 -604 160 0 160 0 0
593 c0 561 -1 598 -20 672 -41 161 -128 250 -295 302 -49 15 -94 18 -255 18
-193 0 -196 0 -248 -27 l-52 -27 0 29 0 30 -155 0 -155 0 0 -795z"/>
<path d="M24060 1815 l0 -144 304 -3 c292 -3 306 -4 333 -24 49 -36 65 -77 71
-174 l5 -88 -239 -5 c-245 -5 -296 -12 -374 -52 -93 -48 -153 -120 -192 -233
-21 -60 -23 -85 -23 -247 0 -165 2 -185 23 -238 36 -88 79 -137 152 -175 99
-50 203 -64 444 -60 216 4 234 7 285 62 24 25 24 26 38 6 8 -11 33 -30 56 -42
35 -19 62 -23 170 -26 l127 -4 0 136 0 136 -37 1 c-21 0 -54 5 -73 12 l-35 12
-6 450 c-5 378 -9 460 -23 510 -39 138 -99 216 -210 270 -110 55 -186 64 -513
65 l-283 0 0 -145z m710 -882 c0 -87 -5 -176 -10 -198 -16 -72 -26 -75 -247
-75 l-195 0 -29 29 -29 29 0 134 c0 149 10 180 72 218 30 18 51 20 236 20
l202 0 0 -157z"/>
</g>
</svg>
