<svg version="1.1" id="Layer_1" xmlns="http://www.w3.org/2000/svg" xmlns:xlink="http://www.w3.org/1999/xlink" x="0px" y="0px"
	 width="100%" viewBox="0 0 849 94" enable-background="new 0 0 849 94" xml:space="preserve">
<path fill="#FFFFFF" opacity="1.000000" stroke="none" 
	d="
M849.634888,82.726509 
	C850.000000,86.997902 851.559326,92.547668 849.560425,94.556206 
	C847.571045,96.555138 842.008423,94.999733 838.012634,94.999741 
	C560.825012,95.000031 283.637390,94.983658 6.449829,95.135094 
	C1.651552,95.137718 0.120888,94.071907 0.948264,89.446281 
	C1.265860,87.670692 1.000000,85.790749 1.000000,83.479172 
	C2.787572,81.422340 4.993294,81.548538 7.145428,81.529770 
	C12.960291,81.479073 18.777704,81.625320 24.590084,81.472992 
	C32.300838,81.270897 37.051441,77.217651 37.310028,69.677711 
	C37.805347,55.235081 37.782192,40.768627 37.317795,26.324476 
	C37.084011,19.052940 32.607609,15.075509 24.978012,14.599936 
	C19.341541,14.248598 13.682912,14.549192 8.034912,14.472899 
	C5.892504,14.443959 3.692447,14.698443 1.356483,13.265911 
	C1.000000,9.001872 -0.559502,3.450857 1.439544,1.443295 
	C3.430114,-0.555755 8.992513,1.000237 12.988769,1.000233 
	C290.358917,0.999976 567.729065,1.014837 845.099121,0.869044 
	C849.589783,0.866683 850.134033,2.117730 850.098389,6.095397 
	C849.895447,28.749636 850.000000,51.406628 850.000000,74.531342 
	C845.470337,77.625092 840.629211,76.617004 835.897278,76.021133 
	C833.254578,75.688347 832.738342,73.319443 832.596375,71.073181 
	C832.302124,66.415680 832.474976,61.748711 832.465393,57.085953 
	C832.440308,44.927025 832.510498,32.767754 832.431946,20.609180 
	C832.396912,15.192795 831.817078,14.650983 826.352600,14.570958 
	C822.525269,14.514908 818.687866,14.350760 814.868469,14.725395 
	C813.525574,14.857116 812.119934,15.186641 812.131836,16.988411 
	C812.143616,18.762028 813.526001,19.031862 814.869019,19.286091 
	C815.361267,19.379263 815.862732,19.384020 816.360168,19.428041 
	C825.391052,20.227186 825.519714,20.350393 825.535583,29.654676 
	C825.557129,42.313309 825.537781,54.971992 825.543884,67.630653 
	C825.544861,69.628815 825.474609,71.634720 825.778625,73.616821 
	C826.579163,78.836182 829.145386,81.058098 834.440735,81.443382 
	C839.382385,81.802917 844.436401,80.538391 849.634888,82.726509 
z"/>
<path fill="#000000" opacity="1.000000" stroke="none" 
	d="
M1.000000,13.468657 
	C8.313869,13.000000 15.634112,13.193569 22.940062,12.953033 
	C33.011623,12.621444 39.533779,18.654793 39.128418,28.888556 
	C38.602509,42.165672 38.807510,55.483273 39.077835,68.775726 
	C39.221962,75.862869 33.187653,83.808647 24.865602,83.131081 
	C17.269634,82.512627 9.583634,83.000000 1.468657,83.000000 
	C1.000000,59.979103 1.000000,36.958210 1.000000,13.468657 
z"/>
<path fill="#000000" opacity="1.000000" stroke="none" 
	d="
M850.000000,82.555832 
	C845.009888,83.000000 840.019714,83.000092 835.029602,82.999977 
	C827.251831,82.999794 824.013550,79.688454 824.004883,71.642288 
	C823.988220,56.172886 823.878052,40.701763 824.092224,25.235310 
	C824.141113,21.705523 823.225830,20.438242 819.731934,20.958605 
	C818.104614,21.200958 816.411316,21.002680 814.747925,20.999483 
	C810.268433,20.990877 808.640686,18.560307 809.988403,14.252916 
	C810.627502,12.210412 812.121704,13.063995 813.232666,13.044330 
	C818.720093,12.947193 824.222656,13.223444 829.694824,12.918561 
	C833.130737,12.727128 834.135742,13.611853 834.094177,17.197100 
	C833.887878,34.992863 834.142334,52.794342 833.888977,70.588890 
	C833.833191,74.505318 835.019409,75.389694 838.591614,75.067749 
	C842.056580,74.755470 845.571655,75.000000 849.532349,75.000000 
	C850.000000,77.370560 850.000000,79.741112 850.000000,82.555832 
z"/>
<path fill="#000000" opacity="1.000000" stroke="none" 
	d="
M633.121460,34.625778 
	C635.908386,37.704151 637.015625,40.978233 637.008301,44.699738 
	C636.985596,56.198456 636.822327,67.701591 637.103455,79.193466 
	C637.192932,82.853180 635.713562,83.255409 632.796204,83.041443 
	C630.248169,82.854561 627.730591,83.768814 627.878662,79.290543 
	C628.247375,68.137268 627.956543,56.963348 628.029602,45.798363 
	C628.048584,42.894230 627.700378,40.376274 624.199158,40.030830 
	C620.742004,39.689739 619.523682,41.419853 618.847839,44.877319 
	C617.074463,53.950123 618.549194,63.038204 618.017151,72.095818 
	C617.900085,74.088730 618.002380,76.094376 617.999512,78.094162 
	C617.992798,82.831917 615.952087,84.265099 611.391907,83.018967 
	C609.018311,82.370338 610.066101,80.618225 610.054138,79.397285 
	C609.957520,69.565964 610.016663,59.733219 609.985840,49.901047 
	C609.979736,47.962658 609.480286,46.029655 609.258179,44.168896 
	C608.863281,40.861328 607.314087,39.791916 604.557190,40.064117 
	C601.306274,40.385101 599.974792,42.578457 599.987244,45.772491 
	C600.023560,55.104679 600.000000,64.437096 599.999939,73.769424 
	C599.999939,75.102615 600.000610,76.435799 599.999878,77.768990 
	C599.997253,82.652466 596.995850,84.586151 592.211365,83.018929 
	C590.452271,82.442711 591.031250,81.223114 591.028442,80.221542 
	C590.987549,65.389923 591.013245,50.558125 590.981934,35.726456 
	C590.978455,34.074196 591.013611,32.587376 593.264038,33.013947 
	C600.288208,34.345402 607.843872,30.851229 614.476501,35.240143 
	C615.862427,36.157249 616.794617,35.246956 617.416748,34.836655 
	C622.507996,31.479094 627.651062,32.700615 633.121460,34.625778 
z"/>
<path fill="#000000" opacity="1.000000" stroke="none" 
	d="
M363.000000,42.000000 
	C363.000000,54.809746 362.854309,67.122337 363.094849,79.427383 
	C363.161102,82.817459 361.855530,83.128532 359.083038,83.055946 
	C352.459656,82.882568 345.828583,83.018326 339.200745,82.995262 
	C331.295593,82.967743 327.596069,80.422630 326.021179,72.496399 
	C324.061066,62.631588 323.973907,52.535637 326.131104,42.714207 
	C327.677032,35.675770 331.968506,33.173058 339.111084,32.957573 
	C344.021362,32.809437 350.606720,35.143307 353.354065,31.942854 
	C355.753662,29.147482 353.963501,22.742260 353.995392,17.931692 
	C354.024231,13.583188 358.102386,11.101911 362.049835,13.045524 
	C363.706696,13.861345 362.952484,15.369534 362.962463,16.548164 
	C363.033142,24.864948 362.999969,33.182617 363.000000,42.000000 
z"/>
<path fill="#000000" opacity="1.000000" stroke="none" 
	d="
M788.677490,82.883469 
	C786.521057,81.801956 785.109009,81.874374 782.880554,82.186035 
	C775.072571,83.278069 766.531494,85.374458 759.413452,80.530960 
	C754.190247,76.976852 754.108093,70.373634 755.257507,64.810112 
	C757.096558,55.907982 759.598755,51.350090 771.237305,51.986031 
	C773.063599,52.085823 774.929077,52.202995 776.724426,51.947277 
	C778.844360,51.645313 782.323364,53.799477 782.088135,48.783043 
	C781.850098,43.707447 780.283020,41.110264 776.136169,41.022724 
	C771.475525,40.924332 766.794861,40.761406 762.153870,41.078827 
	C758.728577,41.313095 758.810852,39.453114 758.997314,37.148914 
	C759.153931,35.213089 758.028931,32.739578 761.853821,32.926067 
	C767.668457,33.209568 773.510376,32.878410 779.334595,33.034817 
	C785.051697,33.188354 790.150452,38.650455 791.095093,44.102234 
	C792.666565,53.171928 791.578369,62.258022 792.054871,71.318764 
	C792.123718,72.628784 790.792114,74.753166 793.761597,75.054741 
	C797.924255,75.477493 797.249878,78.819603 796.915527,81.416183 
	C796.490417,84.717209 793.692261,82.339409 792.073120,82.941093 
	C791.196838,83.266739 790.096802,82.990387 788.677490,82.883469 
z"/>
<path fill="#000000" opacity="1.000000" stroke="none" 
	d="
M723.814453,41.000000 
	C722.024780,41.000015 720.690308,41.043869 719.359558,40.992062 
	C714.846191,40.816338 712.921814,42.982609 712.966064,47.468319 
	C713.071289,58.129421 712.749695,68.800858 713.115051,79.450470 
	C713.276245,84.148636 710.443542,83.002235 708.040894,82.962357 
	C705.709839,82.923653 702.800232,84.249771 702.895447,79.532837 
	C703.184387,65.211411 703.068787,50.879822 702.939514,36.553734 
	C702.914917,33.820797 703.517395,32.812439 706.446533,32.929035 
	C712.408813,33.166359 718.397400,33.225239 724.356689,32.953545 
	C737.125244,32.371399 740.351868,39.201622 740.875366,48.924103 
	C741.429871,59.223202 740.879883,69.577263 741.048462,79.903458 
	C741.138123,85.394608 737.195374,82.402390 735.069763,82.913223 
	C732.682678,83.486908 730.794312,83.266411 730.897217,79.582024 
	C731.190186,69.094666 731.014404,58.593781 730.994263,48.098270 
	C730.983337,42.392822 729.998718,41.382103 723.814453,41.000000 
z"/>
<path fill="#000000" opacity="1.000000" stroke="none" 
	d="
M505.301025,75.000000 
	C510.099030,75.000580 514.431335,75.067612 518.759827,74.969284 
	C520.510864,74.929504 521.357239,75.573822 520.964111,77.254990 
	C520.519958,79.154182 522.448486,82.638618 519.725830,82.762474 
	C512.484741,83.091866 505.170288,83.661606 497.919525,82.435051 
	C491.074005,81.277061 488.380463,76.032562 488.218109,70.334137 
	C487.951324,60.970264 487.067291,51.532135 488.918060,42.146671 
	C489.971893,36.802773 493.754150,33.799538 498.085541,33.310234 
	C503.843353,32.659790 509.899750,31.978016 515.746643,33.893875 
	C521.912903,35.914406 523.287598,41.172615 523.870972,46.469440 
	C524.412048,51.382381 525.687256,57.736282 523.294434,61.013847 
	C520.994812,64.163795 514.300354,61.668682 509.548370,61.976307 
	C507.392029,62.115898 505.113770,61.591129 503.083191,62.114277 
	C501.026978,62.644016 497.432037,59.652328 496.997620,64.435204 
	C496.466217,70.286095 498.328430,74.032913 502.341278,74.963234 
	C503.132416,75.146645 504.000946,74.996376 505.301025,75.000000 
z"/>
<path fill="#000000" opacity="1.000000" stroke="none" 
	d="
M253.038788,40.189934 
	C256.174530,45.584770 254.950195,51.136555 254.914124,56.454571 
	C254.875336,62.175636 255.865768,67.963554 254.027908,73.636147 
	C252.528427,78.264336 249.735077,81.927879 244.931000,82.421547 
	C237.718903,83.162651 230.353943,84.527695 223.295517,80.882568 
	C218.566010,78.440140 217.222610,74.300522 217.070663,69.683212 
	C216.813477,61.868412 216.789307,54.031742 217.058960,46.217781 
	C217.331818,38.310558 221.650116,33.603588 230.185822,33.134544 
	C235.362961,32.850060 240.658264,32.216530 245.878479,33.860611 
	C249.205734,34.908520 251.469208,36.788033 253.038788,40.189934 
z"/>
<path fill="#000000" opacity="1.000000" stroke="none" 
	d="
M457.000000,65.998459 
	C457.000000,70.330444 456.684357,74.196045 457.084595,77.986053 
	C457.526550,82.170998 456.154083,83.178528 451.998932,83.179779 
	C447.839233,83.181030 446.827759,82.143913 446.889099,77.991112 
	C447.150085,60.333183 446.912415,42.668358 447.079102,25.008146 
	C447.109833,21.750523 446.276825,20.563030 442.991211,20.947983 
	C440.690094,21.217585 438.292389,20.727581 436.007843,21.059240 
	C431.826660,21.666237 430.474945,20.175997 430.885620,15.985879 
	C431.115875,13.636415 431.615784,12.924081 434.006775,12.947154 
	C446.002319,13.062908 458.002991,13.158709 469.994324,12.905725 
	C473.696564,12.827619 472.990540,14.948772 472.989716,16.999382 
	C472.988861,19.048267 473.689331,21.680779 469.996216,21.007593 
	C469.673706,20.948801 469.328949,20.974607 468.998260,21.003847 
	C465.078613,21.350418 459.857361,19.234970 457.595520,21.898273 
	C455.685242,24.147705 457.019958,29.197287 457.009979,33.007767 
	C456.981598,43.838028 457.000000,54.668419 457.000000,65.998459 
z"/>
<path fill="#000000" opacity="1.000000" stroke="none" 
	d="
M137.851654,33.000008 
	C142.850891,32.100929 141.735886,35.344795 142.053772,37.813648 
	C142.490662,41.206810 140.534668,41.099747 138.187073,41.029095 
	C134.531189,40.919067 130.867386,41.078056 127.210968,40.977448 
	C123.762306,40.882557 122.130615,42.262363 121.925362,45.872669 
	C121.713936,49.591717 122.277252,52.411179 126.567734,52.976654 
	C127.385506,53.084431 128.243454,53.099339 129.058289,52.983776 
	C135.361221,52.089901 140.469543,54.390514 142.551773,60.245640 
	C144.998291,67.125107 145.266266,74.247711 139.384048,80.158020 
	C137.531815,82.019127 135.271713,82.845779 132.903397,82.930901 
	C127.089462,83.139854 121.259407,82.876175 115.442795,83.043839 
	C111.808037,83.148613 113.110023,80.597061 113.060814,78.947044 
	C113.009781,77.235870 111.987312,74.780991 115.546120,74.949532 
	C120.026886,75.161720 124.525787,74.960686 129.016083,75.009483 
	C135.234177,75.077057 133.704163,70.506042 134.034286,66.906258 
	C134.360733,63.346626 133.274445,61.754795 129.370285,61.892483 
	C126.337128,61.999454 123.201996,61.405090 120.232162,60.650345 
	C114.479172,59.188293 110.638382,51.624577 112.032150,44.937122 
	C114.089691,35.064915 117.164795,33.037052 126.890915,33.002018 
	C130.383759,32.989437 133.876678,33.000000 137.851654,33.000008 
z"/>
<path fill="#000000" opacity="1.000000" stroke="none" 
	d="
M289.972229,83.000000 
	C285.652893,83.000000 281.827606,83.002609 278.002350,82.999352 
	C273.064453,82.995140 271.837189,81.300995 272.976593,76.513283 
	C273.623840,73.793449 275.657074,75.070198 276.963318,75.095863 
	C279.314148,75.142021 280.094482,74.504883 280.056976,72.047203 
	C279.914917,62.735683 279.869141,53.417774 280.077515,44.108753 
	C280.142090,41.224056 278.958435,40.580315 276.626221,41.025597 
	C272.619080,41.790668 273.163605,39.213989 272.913666,36.648220 
	C272.590179,33.327122 273.970093,32.879066 276.850311,32.935646 
	C285.801697,33.111481 294.762634,33.151711 303.711395,32.918564 
	C306.879547,32.836029 307.261902,34.164070 307.031555,36.707169 
	C306.834473,38.883095 307.808228,41.349102 303.800293,41.126339 
	C300.792450,40.959164 297.757080,40.734062 294.569641,41.689281 
	C290.427155,42.930706 289.072723,45.411915 289.027252,49.129112 
	C288.935760,56.612209 289.145752,64.101456 288.927673,71.579308 
	C288.841614,74.530914 289.869141,75.398552 292.579651,75.021828 
	C293.558655,74.885773 294.588348,75.114769 295.567383,74.978882 
	C298.745575,74.537766 300.140289,75.239738 300.176849,79.054634 
	C300.215393,83.076027 298.445679,83.307869 295.453186,83.027649 
	C293.804504,82.873260 292.129486,83.000000 289.972229,83.000000 
z"/>
<path fill="#000000" opacity="1.000000" stroke="none" 
	d="
M569.572693,82.642029 
	C561.559021,82.966751 553.900513,82.802055 546.258667,83.085136 
	C543.001160,83.205811 542.784180,81.733315 542.971497,79.261734 
	C543.138184,77.063385 542.252441,74.247154 546.220764,74.996796 
	C549.228943,75.565063 550.170959,74.451103 550.084167,71.292511 
	C549.842102,62.482586 549.886414,53.659374 550.064697,44.846405 
	C550.123047,41.962814 549.649109,40.324097 546.359741,40.998337 
	C542.622437,41.764389 543.102844,39.254307 542.939636,36.880169 
	C542.743408,34.026043 543.290161,32.807388 546.617065,32.907780 
	C555.565613,33.177814 564.534180,33.195824 573.481262,32.902096 
	C576.978455,32.787285 577.104187,34.312206 577.066833,36.976635 
	C577.030945,39.543964 577.118652,41.600185 573.526428,41.052952 
	C571.575500,40.755753 569.537048,40.908817 567.546753,41.017570 
	C561.616882,41.341606 559.032593,44.037857 559.007141,49.904873 
	C558.976868,56.891464 559.129944,63.881832 558.939209,70.863342 
	C558.857117,73.867714 559.321472,75.219818 562.863098,75.102417 
	C570.075806,74.863327 570.083740,75.103195 569.572693,82.642029 
z"/>
<path fill="#000000" opacity="1.000000" stroke="none" 
	d="
M197.000000,79.000366 
	C196.708694,80.642685 197.705490,82.908363 196.037201,82.832420 
	C188.693802,82.498123 181.120468,84.715347 174.034958,81.482849 
	C169.350296,79.345642 167.022141,75.386856 167.006378,70.191864 
	C166.982147,62.205669 166.984116,54.219303 167.004547,46.233086 
	C167.024200,38.549137 172.499237,33.039387 180.134109,33.003826 
	C184.626297,32.982899 189.143524,33.291359 193.603241,32.910282 
	C197.342896,32.590733 196.925781,34.678192 197.063232,37.100159 
	C197.223160,39.918591 196.772827,41.395329 193.396347,41.077206 
	C189.768204,40.735374 186.064255,40.769527 182.427521,41.062870 
	C178.472412,41.381897 175.754288,43.047234 175.934784,47.836704 
	C176.191483,54.648643 176.188187,61.484413 175.936600,68.296730 
	C175.756424,73.175743 178.664612,74.639923 182.560593,74.936607 
	C186.365295,75.226334 190.230209,75.246361 194.029633,74.924194 
	C197.211258,74.654404 197.137314,76.407425 197.000000,79.000366 
z"/>
<path fill="#000000" opacity="1.000000" stroke="none" 
	d="
M69.000000,71.980667 
	C68.999977,62.486202 68.884483,53.487156 69.067474,44.494179 
	C69.125397,41.647453 68.298958,40.632343 65.478897,40.960590 
	C63.670734,41.171051 61.758446,40.702660 59.996857,41.056480 
	C54.974808,42.065182 54.704525,39.261490 54.928383,35.480320 
	C55.044094,33.525833 55.594357,32.933899 57.519173,32.963829 
	C63.848652,33.062252 70.184700,33.135433 76.509880,32.943497 
	C79.612808,32.849342 78.991440,34.796986 78.993347,36.522091 
	C79.006073,48.017857 79.130753,59.516075 78.917458,71.007896 
	C78.856339,74.301064 79.775398,75.481277 83.023674,75.038864 
	C84.659386,74.816086 86.407402,75.277061 88.005989,74.948647 
	C93.029327,73.916664 93.291893,76.745262 93.071526,80.521667 
	C92.957298,82.479179 92.400848,83.065804 90.478767,83.036041 
	C84.149277,82.938049 77.816200,82.932274 71.486977,83.038475 
	C69.509369,83.071655 68.869095,82.406609 68.967033,80.473770 
	C69.101761,77.814926 69.000282,75.144112 69.000000,71.980667 
z"/>
<path fill="#000000" opacity="1.000000" stroke="none" 
	d="
M673.000000,70.861877 
	C672.608765,73.952286 673.281494,75.435760 676.362427,75.046478 
	C678.330627,74.797813 680.397095,75.258522 682.346741,74.946548 
	C686.493774,74.282967 687.219727,76.180786 687.121460,79.861183 
	C687.046509,82.665558 686.054565,83.103737 683.637451,83.045441 
	C677.808777,82.904900 671.967224,82.828781 666.145386,83.073021 
	C663.295166,83.192596 662.933777,82.038361 662.955505,79.630722 
	C663.056274,68.467369 662.708069,57.291306 663.138916,46.143692 
	C663.319763,41.465427 661.738220,40.349354 657.624084,40.969318 
	C656.320618,41.165737 654.926819,40.802464 653.636169,41.036385 
	C649.467468,41.791935 648.662537,39.778805 648.911499,36.120907 
	C649.061096,33.923248 649.250854,32.843460 651.878967,32.934628 
	C657.870483,33.142471 663.881287,33.173138 669.869751,32.925282 
	C672.749878,32.806076 673.061890,34.004280 673.042114,36.384396 
	C672.947815,47.714500 673.000000,59.045826 673.000000,70.861877 
z"/>
<path fill="#000000" opacity="1.000000" stroke="none" 
	d="
M78.999992,17.970276 
	C79.453926,24.857149 74.573807,21.149899 72.158058,21.923281 
	C69.630142,22.732573 68.584190,21.281425 69.001862,18.757536 
	C69.312325,16.881437 67.958107,13.953491 69.762405,13.316051 
	C72.248428,12.437767 75.360153,12.624583 78.025833,13.191767 
	C80.035660,13.619407 78.601860,16.031103 78.999992,17.970276 
z"/>
<path fill="#000000" opacity="1.000000" stroke="none" 
	d="
M663.007324,17.530582 
	C664.620117,14.613150 666.061951,12.068102 669.886230,13.361914 
	C672.106079,14.112965 673.370789,14.893931 673.079712,17.605110 
	C672.780029,20.396343 671.557312,21.978731 668.849854,21.943653 
	C666.165710,21.908878 661.975525,23.612265 663.007324,17.530582 
z"/>
<path fill="#FFFFFF" opacity="1.000000" stroke="none" 
	d="
M29.992199,28.560343 
	C29.999399,41.326813 30.020979,53.643867 29.991983,65.960808 
	C29.974699,73.303116 28.288738,74.988953 21.152014,75.000000 
	C9.999994,75.017265 9.999995,75.017265 10.000000,63.669266 
	C10.000006,50.686474 10.116765,37.701881 9.916024,24.722193 
	C9.867253,21.568707 10.743884,20.562019 13.787216,20.957249 
	C15.587755,21.191080 17.474573,21.217051 19.268652,20.960005 
	C25.049057,20.131813 28.740271,22.238085 29.992199,28.560343 
z"/>
<path fill="#FFFFFF" opacity="1.000000" stroke="none" 
	d="
M354.000000,54.005180 
	C353.515808,60.045490 354.804718,65.633682 353.149933,71.197243 
	C352.559753,73.181412 351.445282,74.096031 349.987579,74.434898 
	C345.982880,75.365845 341.887512,75.538513 337.870056,74.352806 
	C336.238190,73.871170 335.216553,73.016769 334.885101,70.981285 
	C333.478363,62.342464 333.555756,53.775661 334.843933,45.122894 
	C335.231262,42.521149 336.976654,41.446758 338.589874,41.291142 
	C343.201202,40.846310 347.876190,41.046165 352.526276,41.025627 
	C354.378754,41.017445 353.975220,42.458466 353.986481,43.530563 
	C354.021515,46.855816 353.999756,50.181667 354.000000,54.005180 
z"/>
<path fill="#FFFFFF" opacity="1.000000" stroke="none" 
	d="
M773.185791,60.000000 
	C782.002258,60.000004 782.002258,60.000004 782.000000,68.524963 
	C781.998291,74.998314 781.998291,74.998329 775.523499,74.999977 
	C774.862366,75.000145 774.201294,75.000000 773.540161,74.999992 
	C765.135681,74.999908 762.560730,71.535477 765.198059,63.567120 
	C766.416077,59.886932 769.566956,59.836475 773.185791,60.000000 
z"/>
<path fill="#FFFFFF" opacity="1.000000" stroke="none" 
	d="
M504.211487,41.000000 
	C513.834534,41.000027 515.451599,42.700745 515.067932,51.287220 
	C514.970947,53.456390 514.414185,54.164795 512.255737,54.042011 
	C509.289490,53.873295 506.233307,54.398838 503.354218,53.871071 
	C501.136841,53.464600 496.978088,56.738655 496.946503,50.909737 
	C496.907379,43.690987 498.353729,41.323830 504.211487,41.000000 
z"/>
<path fill="#FFFFFF" opacity="1.000000" stroke="none" 
	d="
M226.000000,62.876968 
	C226.521133,56.678444 225.236237,50.942947 226.789047,45.173038 
	C227.572098,42.263405 229.370270,41.402798 231.503647,41.110046 
	C234.445251,40.706371 237.529739,40.690754 240.465149,41.115753 
	C242.559296,41.418945 244.684265,42.062519 245.148102,45.171013 
	C246.440887,53.834511 246.470978,62.405014 245.125198,71.064690 
	C244.714905,73.704842 242.828613,74.537285 241.212830,74.757164 
	C237.787415,75.223320 234.216553,75.218033 230.776077,74.809891 
	C227.267822,74.393700 226.595078,71.187637 226.061478,68.345345 
	C225.759476,66.736588 226.002472,65.025513 226.000000,62.876968 
z"/>
</svg>