<svg version="1.1" id="Layer_1" xmlns="http://www.w3.org/2000/svg" xmlns:xlink="http://www.w3.org/1999/xlink" x="0px" y="0px"
	 width="100%" viewBox="0 0 849 94" enable-background="new 0 0 849 94" xml:space="preserve">
<path fill="#FFFFFF" opacity="1.000000" stroke="none" 
	d="
M849.634888,82.726433 
	C850.000000,86.997902 851.559326,92.547668 849.560425,94.556206 
	C847.571045,96.555138 842.008423,94.999733 838.012634,94.999741 
	C560.825012,95.000031 283.637390,94.983658 6.449829,95.135094 
	C1.651552,95.137718 0.120888,94.071907 0.948264,89.446281 
	C1.265860,87.670692 1.000000,85.790749 1.000000,83.479172 
	C2.901164,81.330109 5.246009,81.464363 7.520598,81.483482 
	C12.914648,81.528816 18.308346,81.411995 24.127480,81.495285 
	C32.719387,81.430321 36.082451,78.518677 37.497101,69.846443 
	C37.447544,56.033356 37.424366,42.642677 37.483543,28.826740 
	C37.666271,19.306479 33.956070,15.288483 24.138020,14.446382 
	C16.392872,14.102332 8.992628,15.608789 1.371501,13.278893 
	C1.000000,9.001872 -0.559502,3.450857 1.439544,1.443295 
	C3.430114,-0.555755 8.992513,1.000237 12.988769,1.000233 
	C290.358917,0.999976 567.729065,1.014837 845.099121,0.869044 
	C849.589783,0.866683 850.134033,2.117730 850.098389,6.095397 
	C849.895447,28.749636 850.000000,51.406628 850.000000,74.531342 
	C845.470703,77.626045 840.629639,76.617683 835.897827,76.021744 
	C833.255615,75.688972 832.737976,73.320824 832.595886,71.074448 
	C832.301147,66.417068 832.474854,61.750202 832.465149,57.087563 
	C832.440002,44.928928 832.510132,32.769951 832.431580,20.611671 
	C832.396484,15.194260 831.816711,14.652018 826.353821,14.571767 
	C822.526550,14.515544 818.689270,14.351531 814.869934,14.726174 
	C813.527344,14.857871 812.121094,15.186504 812.133057,16.988472 
	C812.144836,18.762127 813.527771,19.031281 814.870544,19.285362 
	C815.362793,19.378504 815.864258,19.383274 816.361694,19.427288 
	C825.390930,20.226204 825.520447,20.350441 825.536072,29.655190 
	C825.557251,42.313515 825.537903,54.971893 825.544434,67.630249 
	C825.545471,69.628357 825.475525,71.634178 825.779663,73.616226 
	C826.580444,78.835861 829.145752,81.057167 834.441345,81.442604 
	C839.382874,81.802269 844.436768,80.537392 849.634888,82.726433 
z"/>
<path fill="#000000" opacity="1.000000" stroke="none" 
	d="
M850.000000,82.555832 
	C845.009888,83.000214 840.019775,83.000542 835.029663,83.000610 
	C827.252625,83.000725 824.012756,79.688080 824.004089,71.642815 
	C823.987366,56.173508 823.877380,40.702480 824.091370,25.236115 
	C824.140198,21.707340 823.226807,20.437941 819.731750,20.958773 
	C818.104492,21.201265 816.411194,21.002729 814.747803,20.999523 
	C810.269348,20.990889 808.640686,18.558678 809.989014,14.252370 
	C810.628418,12.210366 812.122620,13.063845 813.233765,13.044185 
	C818.721191,12.947086 824.223633,13.223338 829.695801,12.918381 
	C833.131531,12.726909 834.136536,13.610864 834.094971,17.196554 
	C833.888550,34.992203 834.142883,52.793571 833.889893,70.588013 
	C833.834229,74.502403 835.017273,75.390862 838.591675,75.068169 
	C842.056519,74.755379 845.571716,75.000435 849.532349,75.000244 
	C850.000000,77.370560 850.000000,79.741112 850.000000,82.555832 
z"/>
<path fill="#000000" opacity="1.000000" stroke="none" 
	d="
M1.000000,13.468657 
	C8.691126,13.003994 16.382252,13.007988 24.536304,13.089255 
	C26.918753,15.455778 26.586941,17.958107 25.421370,20.901165 
	C23.249269,22.638779 21.043316,22.469067 18.892918,22.529930 
	C11.579354,22.736925 11.559864,22.729296 11.548278,30.269009 
	C11.530120,42.085411 11.546119,53.901855 11.541233,65.718285 
	C11.540270,68.047783 11.584264,70.378983 11.322717,73.117538 
	C11.023954,78.424118 12.051322,79.135460 16.577221,77.200279 
	C22.950197,74.475334 26.119873,76.091713 26.235779,82.540176 
	C17.978542,82.889534 9.957920,82.945084 1.468649,83.000320 
	C1.000000,59.979103 1.000000,36.958210 1.000000,13.468657 
z"/>
<path fill="#000000" opacity="1.000000" stroke="none" 
	d="
M617.723389,34.095474 
	C630.683167,30.963644 636.757324,33.146664 636.962585,45.810894 
	C637.143372,56.964817 636.756531,68.131966 637.120972,79.276909 
	C637.266052,83.714325 634.805054,82.884773 632.225037,83.043831 
	C629.353516,83.220871 627.794861,82.927055 627.894470,79.220055 
	C628.189392,68.237640 627.965454,57.242043 628.021912,46.251999 
	C628.037170,43.281342 628.054688,40.401825 624.158691,40.026718 
	C620.667664,39.690601 619.519653,41.498302 618.849365,44.912632 
	C617.070007,53.976711 618.550171,63.059193 618.018188,72.109947 
	C617.901123,74.101311 618.003540,76.105423 618.000610,78.103668 
	C617.993530,82.831215 615.946167,84.266289 611.391541,83.019516 
	C609.021362,82.370712 610.066223,80.620499 610.054260,79.399940 
	C609.957886,69.576187 610.020203,59.751007 609.983032,49.926456 
	C609.975708,47.993114 609.488953,46.056019 609.266602,44.197620 
	C608.872070,40.900585 607.360046,39.809078 604.592468,40.060753 
	C601.334351,40.357033 599.975403,42.529083 599.987976,45.729282 
	C600.021484,54.221680 599.999634,62.714294 599.999817,71.206825 
	C599.999878,73.371590 599.746521,75.572990 600.053162,77.693398 
	C600.671326,81.967247 599.327209,83.531876 594.789307,83.147346 
	C591.870789,82.900055 590.869141,82.489655 590.913574,79.302017 
	C591.110779,65.150543 591.077698,50.993977 590.934509,36.841209 
	C590.905273,33.948494 591.343933,32.698391 594.652039,32.914917 
	C599.933777,33.260624 605.252075,33.048897 610.888794,33.323936 
	C613.350281,32.912712 615.291382,34.549229 617.723389,34.095474 
z"/>
<path fill="#000000" opacity="1.000000" stroke="none" 
	d="
M762.294800,82.520241 
	C761.233887,81.775620 760.468811,81.384697 759.372314,80.938828 
	C758.297546,80.917030 757.629639,80.681602 756.729248,80.070099 
	C755.426819,77.905807 754.661743,75.900230 754.715820,73.341263 
	C755.189453,69.101791 754.844299,65.172455 755.960938,61.301521 
	C757.608887,55.588711 761.965698,52.043289 768.005127,52.002983 
	C771.004700,51.982964 774.006470,52.065224 777.003662,51.978298 
	C779.364319,51.909840 782.420898,53.215694 782.113037,48.500599 
	C781.845764,44.407455 781.101562,41.209663 776.346680,41.039097 
	C771.519958,40.865952 766.665405,40.754147 761.855164,41.084164 
	C758.460754,41.317047 758.847656,39.306229 759.038147,37.350487 
	C759.212341,35.562073 757.683411,32.803310 761.658081,32.944382 
	C767.650024,33.157047 773.658325,32.877392 779.653320,33.041492 
	C784.112061,33.163548 790.661987,38.942009 791.266235,44.422058 
	C792.235291,53.210552 791.535583,61.940174 792.055786,70.671997 
	C792.140808,72.099541 790.858643,74.035370 793.563660,74.901924 
	C797.481873,74.521492 798.125183,76.838379 798.214661,79.515518 
	C798.304199,82.198105 797.027832,84.300247 794.268433,84.145905 
	C788.428589,83.819252 782.574524,84.239014 776.374634,83.406754 
	C775.553284,83.116150 775.107178,83.065170 774.330872,83.090729 
	C770.167236,84.240379 766.326233,85.606674 762.294800,82.520241 
z"/>
<path fill="#000000" opacity="1.000000" stroke="none" 
	d="
M727.641541,33.000023 
	C738.524109,34.400917 740.344849,40.271679 740.863525,49.165382 
	C741.454102,59.293171 740.789917,69.487984 741.085632,79.641594 
	C741.242249,85.017570 737.561462,82.578812 735.343445,82.947754 
	C732.734131,83.381767 730.754395,83.317078 730.884277,79.342804 
	C731.226990,68.858597 731.022888,58.355717 730.990845,47.860405 
	C730.973816,42.267803 729.701111,41.057621 724.029480,41.001335 
	C713.066650,40.892540 713.000793,40.956650 713.000305,51.797115 
	C712.999878,61.126366 712.793274,70.462059 713.083313,79.782280 
	C713.239258,84.794594 709.828918,82.747437 707.704529,82.925789 
	C705.501465,83.110733 702.815979,84.113518 702.897949,79.705009 
	C703.167419,65.216362 703.070007,50.718925 702.935791,36.226513 
	C702.911133,33.562592 703.669128,32.871265 706.272461,32.938934 
	C713.239441,33.120041 720.214233,33.000187 727.641541,33.000023 
z"/>
<path fill="#000000" opacity="1.000000" stroke="none" 
	d="
M490.618744,37.886909 
	C493.928162,34.246387 497.632843,32.544594 502.211060,33.002285 
	C506.755096,33.456558 511.349945,32.212597 515.891296,33.898563 
	C521.915527,36.135010 523.332581,41.273335 523.875000,46.576622 
	C524.376526,51.479553 525.645081,57.840267 523.236206,61.061687 
	C520.942810,64.128647 514.245789,61.707424 509.493958,61.979095 
	C507.339478,62.102268 505.112915,61.688080 503.026550,62.084099 
	C500.750244,62.516174 496.699188,59.676765 496.908905,65.466362 
	C497.157043,72.316284 498.593231,74.838165 503.839874,74.974472 
	C508.492310,75.095345 513.172424,75.279846 517.799316,74.915611 
	C521.793152,74.601219 520.838806,77.111061 521.032349,79.292183 
	C521.257751,81.831200 520.892578,83.236809 517.712891,83.075867 
	C511.250427,82.748787 504.694550,83.418388 498.311157,82.613953 
	C491.679382,81.778229 488.329437,76.453262 488.187653,70.381714 
	C487.965302,60.860550 486.911102,51.237595 489.023712,41.765396 
	C489.300446,40.524582 489.881561,39.351654 490.618744,37.886909 
z"/>
<path fill="#000000" opacity="1.000000" stroke="none" 
	d="
M254.999969,57.999809 
	C254.639694,63.545177 255.752625,68.651207 254.038361,73.664574 
	C252.470505,78.249809 249.726715,81.938293 244.926559,82.427322 
	C237.721527,83.161385 230.364365,84.522263 223.311356,80.895660 
	C218.584106,78.464951 217.216873,74.344292 217.068298,69.720795 
	C216.817474,61.915230 216.631729,54.073441 217.103058,46.288326 
	C217.581772,38.381161 219.800201,35.320667 227.672684,33.389786 
	C232.990005,32.085606 238.977798,32.557186 244.509125,33.340336 
	C250.607605,34.203796 254.796707,40.344593 254.983459,47.030975 
	C255.080902,50.519447 255.000214,54.012894 254.999969,57.999809 
z"/>
<path fill="#000000" opacity="1.000000" stroke="none" 
	d="
M441.029297,13.000083 
	C450.854950,13.000107 460.192505,13.197538 469.514252,12.899912 
	C473.084625,12.785916 473.039124,14.427815 473.069092,17.020153 
	C473.099945,19.693745 472.981354,21.372173 469.468384,21.090731 
	C465.525940,20.774876 460.009644,19.600618 457.930634,21.625692 
	C455.222046,24.263975 457.066345,29.769331 457.038300,34.031063 
	C456.939667,49.027077 456.770996,64.029694 457.134766,79.017525 
	C457.248901,83.718536 454.761627,82.996674 451.972839,83.024178 
	C449.114349,83.052376 446.780609,83.576363 446.865021,78.964157 
	C447.194305,60.974190 446.907593,42.973740 447.082031,24.979439 
	C447.114166,21.664557 446.189484,20.588049 442.961395,20.950014 
	C440.657532,21.208342 438.234650,20.646477 435.982117,21.071753 
	C430.906982,22.029930 430.733795,19.204853 430.928406,15.463072 
	C431.031433,13.482299 431.631531,12.862015 433.538269,12.969440 
	C435.863647,13.100451 438.202118,13.000272 441.029297,13.000083 
z"/>
<path fill="#000000" opacity="1.000000" stroke="none" 
	d="
M115.389938,83.391464 
	C110.968559,81.988609 113.318802,78.751678 113.147614,76.564713 
	C112.928154,73.761024 115.585907,75.134369 116.918694,75.069695 
	C120.909218,74.876068 124.916656,74.931465 128.914597,75.020317 
	C132.437698,75.098633 133.974792,73.554146 134.043198,69.981033 
	C134.180557,62.805000 134.230408,63.123310 126.956062,61.862675 
	C123.422211,61.250256 119.443703,61.474808 116.424995,58.886566 
	C112.084549,55.165066 111.515907,49.789997 112.216164,44.962536 
	C113.658951,35.016220 117.157707,33.023888 126.937973,33.000713 
	C130.437881,32.992420 133.945374,33.141697 137.435440,32.956226 
	C140.421295,32.797550 142.216309,32.898766 142.178299,36.943924 
	C142.142273,40.781082 140.731720,41.281567 137.549362,41.056507 
	C134.066879,40.810230 130.552338,41.056515 127.053917,40.984356 
	C124.169495,40.924858 122.194817,41.877018 122.010727,45.054287 
	C121.819855,48.348488 121.325081,51.875744 125.787720,52.861057 
	C127.061958,53.142395 128.463654,53.151932 129.762146,52.968811 
	C138.770111,51.698421 143.112671,58.294296 143.977158,66.580330 
	C144.131943,68.063866 143.994278,69.577911 143.937592,71.518463 
	C144.404327,75.256569 143.137115,77.923019 140.679169,80.556137 
	C139.185226,81.992767 137.809784,82.887955 135.812408,83.590363 
	C128.857407,85.126091 122.322983,83.802513 115.389938,83.391464 
z"/>
<path fill="#000000" opacity="1.000000" stroke="none" 
	d="
M294.882019,83.000763 
	C288.405304,83.000679 282.411346,82.836739 276.432983,83.070488 
	C273.502960,83.185043 272.602631,82.179619 272.980347,79.436928 
	C273.261230,77.396873 271.940552,74.315918 276.042908,75.013367 
	C279.383392,75.581284 280.152283,74.151466 280.074066,70.969017 
	C279.857666,62.159355 279.891968,53.338837 280.062225,44.527153 
	C280.115662,41.762848 279.403168,40.434006 276.541901,41.012844 
	C272.374420,41.855915 273.135803,39.022411 272.943634,36.562180 
	C272.728577,33.809177 273.513550,32.866314 276.433685,32.928608 
	C285.551086,33.123104 294.682709,33.215965 303.793335,32.900131 
	C307.772736,32.762180 306.844177,35.095108 307.032928,37.283352 
	C307.250916,39.810673 306.915039,41.279457 303.719421,41.093624 
	C300.813721,40.924641 297.865784,40.672718 294.895233,41.506580 
	C290.830688,42.647549 288.967865,45.076263 288.989502,49.213768 
	C289.028656,56.697975 289.087219,64.184120 288.950806,71.666046 
	C288.906006,74.123672 289.382172,75.459167 292.167694,75.029427 
	C293.304871,74.853996 294.495697,75.062592 295.655121,74.987801 
	C298.299957,74.817215 300.173157,74.698463 300.187408,78.641617 
	C300.201965,82.650085 298.810913,83.562424 294.882019,83.000763 
z"/>
<path fill="#000000" opacity="1.000000" stroke="none" 
	d="
M193.816666,32.999535 
	C199.505142,32.919296 196.345718,36.823761 196.894714,38.814507 
	C197.653961,41.567585 195.241440,40.968647 193.719589,40.986141 
	C189.893814,41.030121 186.046127,40.751419 182.246674,41.071014 
	C178.235565,41.408413 175.726730,43.306202 175.928116,48.019924 
	C176.211884,54.662212 175.985291,61.325718 176.004913,67.980072 
	C176.018753,72.671516 178.041397,74.835640 182.734573,74.977051 
	C186.557388,75.092247 190.402618,75.217850 194.207855,74.934875 
	C197.548477,74.686455 197.147705,76.752594 196.969177,78.702934 
	C196.803268,80.515442 198.247116,83.235352 194.300613,83.059509 
	C188.987610,82.822777 183.649017,83.173531 178.334564,82.953751 
	C172.513077,82.713013 167.098801,76.919289 167.026138,70.960724 
	C166.920685,62.311275 166.909821,53.658348 167.029419,45.009266 
	C167.117981,38.605392 172.854507,33.110367 179.360245,33.013020 
	C184.017273,32.943333 188.676193,32.999443 193.816666,32.999535 
z"/>
<path fill="#000000" opacity="1.000000" stroke="none" 
	d="
M680.238220,82.532455 
	C674.527405,82.820053 667.538452,84.834587 664.022217,82.205170 
	C660.700684,79.721344 663.155823,72.274406 663.041992,67.016510 
	C662.876221,59.357250 662.911011,51.690117 663.051758,44.029854 
	C663.095276,41.660873 662.465088,40.731102 660.014771,40.958786 
	C657.867737,41.158295 655.637817,40.705860 653.532166,41.061024 
	C649.122986,41.804714 648.820435,39.450977 648.912659,36.019146 
	C648.976196,33.656162 649.548035,32.873295 651.982483,32.944935 
	C657.807861,33.116356 663.646973,33.146748 669.469788,32.936676 
	C672.267456,32.835747 673.103699,33.621204 673.067810,36.482449 
	C672.910828,48.974239 673.001770,61.469139 673.022461,74.423996 
	C674.034485,76.371208 675.796936,76.402557 677.205261,77.107826 
	C679.293152,78.153343 681.191772,79.372368 680.238220,82.532455 
z"/>
<path fill="#000000" opacity="1.000000" stroke="none" 
	d="
M336.708679,33.526207 
	C341.766449,33.111088 346.535065,32.937832 351.296814,33.051937 
	C353.498474,33.104694 354.098511,32.388271 354.045807,30.254604 
	C353.911804,24.829927 354.005646,19.399624 354.060059,13.508457 
	C356.784668,10.854768 359.814301,10.955872 362.477417,12.572373 
	C364.945465,14.070492 364.229675,16.852667 364.159271,19.383728 
	C363.752350,34.009464 364.157990,48.642399 363.855347,63.753429 
	C363.491791,65.232613 362.764587,65.831451 361.463440,66.464493 
	C356.535461,66.832520 354.967224,64.235786 354.651489,60.197388 
	C354.242126,54.961235 355.551819,49.637337 353.517151,44.202126 
	C350.525452,41.762630 347.335876,42.590591 344.324158,42.431065 
	C342.390533,42.328648 340.437408,42.479366 338.160339,41.651932 
	C335.399719,39.272690 335.246552,36.696667 336.708679,33.526207 
z"/>
<path fill="#FFFFFF" opacity="1.000000" stroke="none" 
	d="
M362.602844,65.375435 
	C362.888641,48.641239 362.890991,32.282402 363.056458,15.925221 
	C363.081451,13.454276 362.319214,12.705210 359.970093,12.966290 
	C358.337372,13.147753 356.668396,13.002951 354.563721,13.024626 
	C352.407166,11.500929 353.638214,10.508297 354.975616,10.258192 
	C358.211487,9.653064 361.508392,9.127871 364.789215,9.071954 
	C368.902802,9.001842 370.639496,12.157482 367.978241,15.257742 
	C365.306488,18.370237 364.952423,21.670153 364.969147,25.408819 
	C365.041260,41.541180 365.045349,57.674274 364.962402,73.806534 
	C364.945465,77.102333 365.427490,79.988655 367.858002,82.478378 
	C369.198181,83.851219 370.596588,85.586174 369.467590,87.801834 
	C368.276672,90.139084 366.354401,89.359650 364.314758,89.142281 
	C361.024506,88.791626 357.670502,88.933182 354.347595,89.022583 
	C350.664581,89.121674 347.237549,89.101967 344.195068,86.241234 
	C342.216949,84.381294 339.711761,84.236221 338.159515,87.486435 
	C337.180237,89.536980 335.460327,90.114243 333.153931,89.209724 
	C331.119293,88.411758 328.789948,88.119522 329.016083,85.161156 
	C329.246246,82.150070 327.674530,81.146423 324.909821,80.769577 
	C322.362488,80.422356 320.269409,78.429359 320.665680,76.027069 
	C321.283020,72.284355 318.470398,67.268112 324.755249,65.287521 
	C326.703491,67.773323 326.436493,70.358223 327.108093,72.738861 
	C328.517639,77.735619 331.675781,80.802948 336.813354,81.366570 
	C344.538391,82.214066 352.298828,81.126534 360.044159,81.448593 
	C360.511108,81.468010 360.901459,81.004166 361.266663,80.210861 
	C361.749298,77.145256 361.501678,74.433739 361.611694,71.309349 
	C361.644501,69.140839 361.543671,67.376854 362.602844,65.375435 
z"/>
<path fill="#000000" opacity="1.000000" stroke="none" 
	d="
M38.591721,26.657310 
	C38.884640,41.358196 38.936127,55.715839 38.910378,70.536453 
	C34.979607,74.492813 34.452652,74.466240 31.741608,70.324165 
	C30.923206,69.073769 29.967916,67.916611 29.084682,66.197220 
	C28.085194,55.105301 28.318241,44.416927 28.907612,33.298729 
	C29.661533,31.027447 31.669695,29.975574 31.669714,27.665613 
	C31.669729,25.926229 31.869452,23.788042 34.242695,23.399567 
	C36.444149,23.039211 37.516323,24.582413 38.591721,26.657310 
z"/>
<path fill="#000000" opacity="1.000000" stroke="none" 
	d="
M69.602020,80.174271 
	C69.111000,68.235367 68.927307,56.469654 69.085747,44.708549 
	C69.128014,41.571812 68.261879,40.563072 65.228828,40.957294 
	C63.435867,41.190338 61.558609,40.791706 59.770645,41.042896 
	C55.958061,41.578529 54.523502,40.291252 54.891296,36.299740 
	C55.113049,33.893173 55.406540,32.808777 58.164955,32.932369 
	C63.458488,33.169559 68.769890,33.008064 74.536690,33.089333 
	C76.797386,35.065308 76.490143,37.473167 76.505249,39.757359 
	C76.561142,48.205578 76.405045,56.656708 76.566559,65.101982 
	C76.684151,71.250595 73.382240,75.770134 69.602020,80.174271 
z"/>
<path fill="#000000" opacity="1.000000" stroke="none" 
	d="
M550.492676,73.272804 
	C550.110474,63.736782 549.976440,54.473667 550.047363,45.212120 
	C550.068787,42.410812 549.977112,40.237595 546.265015,40.995552 
	C542.418823,41.780872 543.057251,39.085445 542.974182,36.820190 
	C542.889893,34.522835 542.737427,32.481739 546.140442,32.952095 
	C548.089478,33.221493 550.105225,33.008396 552.545105,33.089767 
	C554.771545,35.105167 554.472534,37.542397 554.294678,39.786552 
	C553.958069,44.034893 555.030945,47.598454 558.583862,50.694473 
	C558.884644,57.025272 558.936096,63.049789 558.910339,69.536911 
	C557.415894,74.014946 554.739136,75.184570 550.492676,73.272804 
z"/>
<path fill="#000000" opacity="1.000000" stroke="none" 
	d="
M69.089073,80.413818 
	C70.966927,75.574348 75.050385,72.209259 75.019302,66.916885 
	C74.955040,55.972542 74.999870,45.027554 74.999664,33.624763 
	C75.756096,33.115261 76.512703,33.063828 77.642365,33.089558 
	C78.175682,33.280266 78.335938,33.393806 78.664711,33.748993 
	C78.884735,46.018333 78.936241,58.046032 78.910461,70.536697 
	C76.379784,74.386726 73.191551,77.488419 74.219589,82.573608 
	C72.283897,82.297211 69.230865,85.085838 69.089073,80.413818 
z"/>
<path fill="#010101" opacity="1.000000" stroke="none" 
	d="
M29.823395,67.221428 
	C31.832003,67.088791 32.384399,68.447441 32.788506,69.643921 
	C33.904732,72.948845 35.703327,73.105545 38.499008,71.041931 
	C36.983738,79.162766 33.955219,82.176544 26.392014,82.911514 
	C24.745874,76.393631 22.131536,75.283615 16.614557,78.849380 
	C12.738677,81.354446 9.874903,79.946404 9.830576,75.165611 
	C12.702486,72.906464 15.797670,73.464104 18.631182,73.694450 
	C23.850555,74.118752 27.532364,72.427841 29.823395,67.221428 
z"/>
<path fill="#FEFEFE" opacity="1.000000" stroke="none" 
	d="
M776.047546,83.517975 
	C778.711487,82.401169 781.963501,84.226852 784.264587,81.364700 
	C784.990295,80.461990 785.715881,81.325996 786.351379,81.746994 
	C788.355164,83.074471 790.615723,83.259048 792.865967,82.948662 
	C794.258423,82.756592 796.569397,84.197571 796.879761,81.717422 
	C797.170349,79.395271 798.036743,76.488800 794.365601,75.009445 
	C794.507507,72.370117 796.362183,72.923004 797.927734,73.214897 
	C799.465759,73.501656 799.834961,74.782356 800.002319,76.208549 
	C800.212158,77.997520 800.640930,79.759560 800.913391,81.542686 
	C801.767273,87.131699 800.871277,87.164963 795.401855,88.374283 
	C790.576233,89.441238 786.262085,87.692680 781.704041,87.967621 
	C778.809753,88.142212 777.268372,86.192299 776.047546,83.517975 
z"/>
<path fill="#010101" opacity="1.000000" stroke="none" 
	d="
M336.624603,33.091293 
	C337.192444,35.576424 336.473480,38.078228 337.884521,40.750183 
	C336.946259,44.385799 335.226013,47.422375 334.238861,51.106853 
	C330.844116,52.496529 328.434113,50.445744 325.467010,49.259235 
	C324.767639,40.710617 327.815002,36.315342 336.624603,33.091293 
z"/>
<path fill="#010101" opacity="1.000000" stroke="none" 
	d="
M38.910637,26.599159 
	C37.441227,26.963339 37.094612,25.635612 36.234283,24.944517 
	C34.388874,23.462103 33.237167,23.935801 33.011909,26.379997 
	C32.825760,28.399828 33.736832,30.860359 30.538113,31.938885 
	C27.953718,28.776320 27.812681,24.540043 25.036366,21.203503 
	C25.000149,18.561354 24.999924,16.289392 24.999466,13.591980 
	C33.256950,13.043230 38.022785,17.482807 38.910637,26.599159 
z"/>
<path fill="#000000" opacity="1.000000" stroke="none" 
	d="
M558.801331,34.199810 
	C564.157349,32.373688 569.411194,33.271053 574.597717,32.978878 
	C578.227173,32.774422 576.882812,35.432499 576.934387,37.057247 
	C576.987915,38.741333 578.039978,41.217911 574.487671,41.049713 
	C570.606812,40.865959 566.667480,40.617989 562.467163,42.063072 
	C559.787415,40.084461 558.420410,37.645897 558.801331,34.199810 
z"/>
<path fill="#000000" opacity="1.000000" stroke="none" 
	d="
M325.089050,49.461430 
	C328.180176,48.168720 330.429871,50.385895 333.459259,50.992687 
	C336.637512,54.714085 335.452698,58.816486 334.789246,63.276054 
	C332.030212,65.927467 329.029480,66.022820 325.533875,65.221100 
	C325.166901,64.943001 325.014526,65.041580 324.924011,65.047928 
	C324.892914,60.010483 324.952362,54.966679 325.089050,49.461430 
z"/>
<path fill="#010101" opacity="1.000000" stroke="none" 
	d="
M550.080444,73.424080 
	C553.123840,72.904465 556.452576,73.848930 558.480347,70.078964 
	C559.681702,71.559517 557.750793,73.875816 560.597046,75.084305 
	C561.542908,75.695457 561.859009,76.339584 561.998901,77.454453 
	C561.992798,78.320435 561.901306,78.805725 561.593506,79.614761 
	C561.258118,80.124649 561.086487,80.301208 560.597656,80.662964 
	C555.589050,83.332573 550.311157,80.327286 545.288940,82.626541 
	C540.928833,81.878448 543.610352,78.711380 543.099731,76.638100 
	C542.574829,74.506950 544.628479,75.256073 545.761475,74.971237 
	C547.175476,74.615746 549.104126,76.134102 550.080444,73.424080 
z"/>
<path fill="#010101" opacity="1.000000" stroke="none" 
	d="
M558.852051,33.525333 
	C559.177917,36.707066 561.359680,38.737003 561.997681,41.750553 
	C560.027405,44.438442 558.503479,46.943916 558.910461,50.603989 
	C554.451965,49.798382 552.366089,47.160725 552.939880,42.415272 
	C553.271301,39.673882 553.000000,36.859619 552.999634,33.622581 
	C554.887634,33.167267 556.775940,33.167526 558.852051,33.525333 
z"/>
<path fill="#000000" opacity="1.000000" stroke="none" 
	d="
M668.001404,21.999895 
	C663.324585,22.888000 663.168701,20.569862 662.840454,17.156029 
	C662.355286,12.110130 665.365417,13.071347 668.243042,12.964221 
	C671.269653,12.851553 673.543091,12.706619 673.158325,17.150415 
	C672.862366,20.568125 672.685608,22.890501 668.001404,21.999895 
z"/>
<path fill="#010101" opacity="1.000000" stroke="none" 
	d="
M79.000549,17.970118 
	C79.453850,24.856262 74.573959,21.151411 72.157410,21.924311 
	C69.629005,22.732988 68.583221,21.281425 69.000916,18.757532 
	C69.311432,16.881252 67.957497,13.953042 69.761986,13.315548 
	C72.248207,12.437204 75.360161,12.623966 78.026039,13.191164 
	C80.035851,13.618777 78.602531,16.030739 79.000549,17.970118 
z"/>
<path fill="#FFFFFF" opacity="1.000000" stroke="none" 
	d="
M115.104973,83.546700 
	C121.700417,82.387245 128.501083,83.956001 135.582489,82.238693 
	C137.820251,83.875244 139.537155,85.641327 139.221375,88.703384 
	C134.781723,88.876228 130.360016,89.960899 127.046318,85.828346 
	C125.716835,84.170326 123.235779,85.267128 121.299103,84.977180 
	C119.264015,84.672508 116.942513,85.963318 115.104973,83.546700 
z"/>
<path fill="#010101" opacity="1.000000" stroke="none" 
	d="
M74.329872,82.911285 
	C71.530663,77.558258 73.756302,73.953873 78.500534,71.063774 
	C79.599388,72.348251 77.599983,75.321144 81.594612,75.089142 
	C82.338310,75.495758 82.569160,75.889877 82.736458,76.686996 
	C82.694862,77.968773 82.371368,78.837883 81.950905,80.033974 
	C81.707649,80.549431 81.591789,80.745705 81.233162,81.180405 
	C79.634941,82.345573 77.903419,81.621864 76.261223,82.635498 
	C75.553421,82.885544 75.106880,82.936928 74.329872,82.911285 
z"/>
<path fill="#FEFEFE" opacity="1.000000" stroke="none" 
	d="
M761.999512,82.576767 
	C765.597107,83.809067 769.408813,82.647629 773.552490,83.089912 
	C771.854553,84.979500 769.900818,87.121300 767.511169,88.516289 
	C764.831848,90.080360 762.133850,87.235214 761.999512,82.576767 
z"/>
<path fill="#FFFFFF" opacity="1.000000" stroke="none" 
	d="
M139.835876,80.229172 
	C141.829910,77.688599 143.308212,75.320030 143.546722,72.118111 
	C145.407242,77.189743 145.838150,82.479782 144.373383,87.926254 
	C142.319107,85.669533 140.686890,83.310997 139.835876,80.229172 
z"/>
<path fill="#FEFEFE" opacity="1.000000" stroke="none" 
	d="
M139.639709,80.013596 
	C141.321854,82.334389 144.042084,84.040642 143.995422,87.631668 
	C142.677689,88.740585 141.277145,89.148262 139.372940,88.999802 
	C138.027817,86.949440 137.055618,84.898880 136.041550,82.507347 
	C137.535004,82.191422 138.431763,81.168915 139.639709,80.013596 
z"/>
<path fill="#000000" opacity="1.000000" stroke="none" 
	d="
M545.461304,82.911476 
	C545.806091,80.213165 548.478088,79.737366 550.101074,80.238495 
	C553.622986,81.325920 556.832642,80.403297 560.583984,80.001099 
	C561.608582,80.634727 561.716614,81.378166 561.238525,82.515503 
	C555.974060,82.885567 550.948303,82.937195 545.461304,82.911476 
z"/>
<path fill="#000000" opacity="1.000000" stroke="none" 
	d="
M561.448364,82.911285 
	C560.999939,82.125458 560.999939,81.416969 561.000000,80.354248 
	C563.327271,77.460342 566.089661,77.177528 569.490967,78.714745 
	C570.656311,82.120277 569.642822,83.525688 566.270935,83.034721 
	C564.841003,82.826508 563.356506,82.992638 561.448364,82.911285 
z"/>
<path fill="#000000" opacity="1.000000" stroke="none" 
	d="
M680.329834,82.910965 
	C680.091064,80.184532 678.871643,78.482529 676.244324,78.054665 
	C674.676025,77.799255 673.423950,77.377022 673.068665,75.255989 
	C675.406738,75.516708 678.033386,74.098106 680.630249,75.987061 
	C682.205200,77.218529 682.157410,78.747665 682.576111,80.482178 
	C682.674500,81.328400 682.618225,81.806267 682.230164,82.552628 
	C681.553101,82.885391 681.106628,82.936714 680.329834,82.910965 
z"/>
<path fill="#000000" opacity="1.000000" stroke="none" 
	d="
M80.764465,81.182487 
	C81.000000,81.000000 81.000000,80.500000 81.000000,80.250000 
	C82.698143,78.248756 84.390091,76.479172 87.477180,78.106430 
	C87.966621,78.460564 88.144127,78.627739 88.499092,79.116302 
	C88.983994,80.411453 88.988022,81.364288 88.239944,82.557961 
	C85.631325,82.885529 83.263237,82.936989 80.457581,82.911118 
	C79.660553,82.160851 80.022415,81.737854 80.764465,81.182487 
z"/>
<path fill="#000000" opacity="1.000000" stroke="none" 
	d="
M85.786354,75.452896 
	C88.717911,75.803017 93.800217,72.267555 92.911575,79.564117 
	C91.263687,81.154854 89.919334,80.392548 88.295189,79.249786 
	C87.211769,77.897362 85.394829,77.560524 85.786354,75.452896 
z"/>
<path fill="#FEFEFE" opacity="1.000000" stroke="none" 
	d="
M754.488281,73.077896 
	C756.005249,74.882576 756.696411,76.935486 757.022705,79.505074 
	C757.168762,80.076309 757.294983,80.267143 757.210632,80.728989 
	C755.580994,81.043564 754.201477,80.982224 753.157043,79.306534 
	C752.619934,78.614357 752.472656,78.154243 752.779175,77.309792 
	C753.201782,75.665146 752.419434,74.037529 754.488281,73.077896 
z"/>
<path fill="#010101" opacity="1.000000" stroke="none" 
	d="
M682.437866,82.911713 
	C681.999695,82.426506 681.999878,82.018936 682.000000,81.305679 
	C682.759155,79.174149 683.798218,77.481026 684.769287,75.406227 
	C689.041504,76.099091 686.682922,79.275078 686.854858,81.287651 
	C687.128113,84.486092 684.246582,82.409439 682.437866,82.911713 
z"/>
<path fill="#010101" opacity="1.000000" stroke="none" 
	d="
M684.642334,75.089043 
	C685.008728,77.346809 685.481873,79.723854 682.328491,80.852875 
	C680.521179,79.919678 681.147644,78.323700 681.000122,76.542023 
	C682.008972,75.537415 682.932373,74.665459 684.642334,75.089043 
z"/>
<path fill="#000000" opacity="1.000000" stroke="none" 
	d="
M561.355957,78.226242 
	C561.000000,77.291695 561.000000,76.583382 560.999939,75.520927 
	C563.994995,75.460884 567.208862,73.751884 569.904541,76.573334 
	C567.353210,78.749008 564.355713,77.611847 561.355957,78.226242 
z"/>
<path fill="#000000" opacity="1.000000" stroke="none" 
	d="
M561.000000,78.333328 
	C563.608826,77.200882 566.262207,76.758202 569.417847,76.999908 
	C569.885864,77.446388 569.937195,77.892960 569.911316,78.669998 
	C567.124390,79.040825 564.369263,78.677177 561.396484,79.952103 
	C561.000000,79.555557 561.000000,79.111107 561.000000,78.333328 
z"/>
<path fill="#000000" opacity="1.000000" stroke="none" 
	d="
M88.000000,79.383408 
	C89.376404,79.302826 90.752808,79.605652 92.481613,79.954071 
	C93.889908,84.194260 90.734489,82.752380 88.416267,82.911507 
	C87.999603,81.811646 87.999802,80.789230 88.000000,79.383408 
z"/>
<path fill="#000000" opacity="1.000000" stroke="none" 
	d="
M85.669937,75.090042 
	C86.639015,76.231644 87.277679,77.296432 87.958176,78.680611 
	C85.687065,77.888916 83.643509,78.603348 81.345230,79.965530 
	C81.249771,79.196609 81.499535,78.393211 81.874649,77.294907 
	C82.482391,76.522659 82.973129,76.054276 83.744637,75.389862 
	C84.446701,75.115646 84.893112,75.064438 85.669937,75.090042 
z"/>
<path fill="#FFFFFF" opacity="1.000000" stroke="none" 
	d="
M617.833252,33.809830 
	C615.898193,36.966614 613.869995,34.712196 611.514893,33.773445 
	C613.338379,31.916363 615.468933,31.617985 617.833252,33.809830 
z"/>
<path fill="#000000" opacity="1.000000" stroke="none" 
	d="
M80.612457,81.000031 
	C80.750610,81.455521 80.501213,81.911041 80.135910,82.600174 
	C78.945023,82.885391 77.870056,82.936996 76.397522,82.911377 
	C76.520119,80.176880 78.661911,81.255119 80.612457,81.000031 
z"/>
<path fill="#FFFFFF" opacity="1.000000" stroke="none" 
	d="
M752.700928,77.038345 
	C753.000000,77.444443 753.000000,77.888893 753.000000,78.666672 
	C752.481079,78.766579 751.705933,78.664978 751.502441,78.269295 
	C751.185364,77.653084 751.778198,77.246010 752.700928,77.038345 
z"/>
<path fill="#000000" opacity="1.000000" stroke="none" 
	d="
M83.669815,75.089935 
	C83.906075,76.043701 83.582909,76.740822 82.307457,76.965897 
	C81.999992,76.592606 81.999992,76.185211 81.999878,75.472275 
	C82.446304,75.115494 82.892822,75.064255 83.669815,75.089935 
z"/>
<path fill="#FFFFFF" opacity="1.000000" stroke="none" 
	d="
M757.155762,81.229172 
	C757.005859,80.814209 757.011719,80.628410 757.030029,80.164047 
	C757.637695,80.023956 758.232849,80.162437 758.934570,80.592392 
	C758.644714,81.617989 758.141296,82.029541 757.155762,81.229172 
z"/>
<path fill="#010101" opacity="1.000000" stroke="none" 
	d="
M78.883224,33.723557 
	C78.575157,33.897121 78.364021,33.740402 78.107620,33.343597 
	C78.321365,33.263309 78.627296,33.359894 78.883224,33.723557 
z"/>
<path fill="#FFFFFF" opacity="1.000000" stroke="none" 
	d="
M24.538570,20.910583 
	C28.827866,23.238276 30.153688,26.854643 30.089035,31.591129 
	C30.114851,43.358177 30.063185,54.715954 30.088839,66.536743 
	C28.750938,74.387070 28.042810,74.996994 20.864532,74.999489 
	C17.587509,75.000626 14.310484,74.997528 10.574007,74.976669 
	C10.076562,58.076935 10.081047,41.196568 9.953411,24.317196 
	C9.934901,21.869364 10.382099,20.742073 13.157592,20.936756 
	C16.780685,21.190895 20.435566,20.991888 24.538570,20.910583 
z"/>
<path fill="#FFFFFF" opacity="1.000000" stroke="none" 
	d="
M770.268250,75.000183 
	C762.245117,75.009697 765.499023,69.260765 765.094910,65.738518 
	C764.634583,61.726410 767.083191,60.085037 771.000977,59.967552 
	C782.389343,59.626038 782.269226,59.563339 782.072510,70.836853 
	C782.014771,74.147888 780.835632,75.283234 777.672302,75.035561 
	C775.372375,74.855484 773.046936,75.000290 770.268250,75.000183 
z"/>
<path fill="#FFFFFF" opacity="1.000000" stroke="none" 
	d="
M497.000183,50.151001 
	C497.244537,46.151558 497.111237,42.139126 501.521362,41.082596 
	C508.205383,39.481300 512.613159,41.048985 514.390564,44.845730 
	C515.586243,47.399788 514.796936,50.013371 514.947205,52.591820 
	C515.055115,54.443638 513.476868,53.971008 512.441040,53.981369 
	C508.144073,54.024364 503.837372,53.829365 499.552155,54.057537 
	C496.563232,54.216686 496.954193,52.406990 497.000183,50.151001 
z"/>
<path fill="#FFFFFF" opacity="1.000000" stroke="none" 
	d="
M226.001053,58.982426 
	C226.423782,53.938194 225.205276,49.324631 226.882385,44.775070 
	C227.476593,43.163151 228.085800,42.297443 229.668701,41.800526 
	C233.840591,40.490864 238.001587,40.643166 242.164795,41.683533 
	C243.867706,42.109085 244.789398,43.070892 245.115921,45.075752 
	C246.524338,53.723560 246.521637,62.310951 245.115540,70.959526 
	C244.786057,72.986000 243.806091,73.928223 242.139389,74.331932 
	C237.979462,75.339523 233.838348,75.460747 229.640396,74.192642 
	C226.020950,73.099297 226.465958,69.980087 226.087997,67.451607 
	C225.698563,64.846390 226.001221,62.137722 226.001053,58.982426 
z"/>
<path fill="#FFFFFF" opacity="1.000000" stroke="none" 
	d="
M333.570526,64.389717 
	C333.884918,59.971405 333.936279,55.943493 333.910492,51.457912 
	C334.538269,47.680828 333.261414,43.524178 337.880920,41.456200 
	C343.349365,41.582394 348.815125,39.602665 354.081055,42.565483 
	C355.909149,48.518650 354.745270,54.184071 354.940094,59.776562 
	C355.082336,63.858124 356.304321,68.056602 354.022369,72.453003 
	C349.946716,76.570236 341.144409,77.909195 336.817230,75.164909 
	C332.995728,72.741341 332.076874,69.054718 333.570526,64.389717 
z"/>
<path fill="#010101" opacity="1.000000" stroke="none" 
	d="
M353.518799,73.482025 
	C355.088013,63.326809 353.524170,53.587486 354.089355,43.462418 
	C356.578674,43.485462 355.959015,45.422176 355.979736,46.958900 
	C356.037598,51.245316 356.184814,55.543549 355.941162,59.816845 
	C355.748901,63.188805 356.984253,65.169907 360.622284,65.958923 
	C362.411560,67.367439 361.868835,69.112946 361.851379,71.156967 
	C360.079681,75.033325 357.402069,75.477104 353.518799,73.482025 
z"/>
<path fill="#000000" opacity="1.000000" stroke="none" 
	d="
M361.284180,72.111954 
	C361.000000,70.285645 361.000000,68.571281 361.000000,66.428467 
	C361.425262,65.682640 361.850525,65.365273 362.554504,65.023720 
	C362.884735,66.722878 362.936249,68.446228 362.910522,70.594536 
	C362.575073,71.592644 362.223450,72.067635 361.284180,72.111954 
z"/>
<path fill="#010101" opacity="1.000000" stroke="none" 
	d="
M333.425598,63.999527 
	C334.245697,66.381378 334.161530,68.777473 334.797302,71.208549 
	C335.398407,73.507103 337.084991,74.558022 338.386230,74.637993 
	C343.014771,74.922470 347.884796,76.360115 352.561249,73.086937 
	C352.919281,72.925507 353.026154,73.028572 353.079315,73.080399 
	C353.902130,78.449814 358.168030,79.417206 362.579193,80.760117 
	C363.422913,83.749596 361.330963,82.960014 360.072876,82.973068 
	C354.110809,83.034920 348.128082,82.690155 342.189178,83.066040 
	C330.441742,83.809532 324.603058,78.206154 325.089539,65.379852 
	C327.819824,64.928383 330.301727,63.490299 333.425598,63.999527 
z"/>
<path fill="#000000" opacity="1.000000" stroke="none" 
	d="
M362.910553,80.551834 
	C353.374146,80.318192 353.327606,80.284508 353.088318,73.523010 
	C355.531281,72.732239 358.264587,75.282494 360.685913,72.155685 
	C361.455444,71.750542 361.910858,71.501091 362.599792,71.135574 
	C362.884766,74.047546 362.936218,77.075600 362.910553,80.551834 
z"/>
</svg>