<svg version="1.1" id="Layer_1" xmlns="http://www.w3.org/2000/svg" xmlns:xlink="http://www.w3.org/1999/xlink" x="0px" y="0px"
	 width="100%" viewBox="0 0 1179 220" enable-background="new 0 0 1179 220" xml:space="preserve">
<path fill="#FFFFFF" opacity="1.000000" stroke="none" 
	d="
M1179.671875,175.784286 
	C1180.000000,190.153931 1179.948730,204.308258 1180.056763,218.461365 
	C1180.072510,220.515503 1179.760254,221.452179 1177.537964,221.024811 
	C1176.734985,220.870392 1175.877563,221.000000 1175.044922,221.000000 
	C1029.675781,221.000000 884.306519,221.000000 738.468628,221.000000 
	C737.219116,220.083160 736.876831,219.028564 737.098083,217.416656 
	C738.131287,214.845871 740.284607,214.669113 742.127869,214.032593 
	C754.864136,209.634369 766.394653,203.410599 776.025146,193.668762 
	C788.299805,181.252228 794.180908,166.194351 794.514404,149.159241 
	C794.999634,124.370644 794.997192,99.559464 794.548828,74.769455 
	C793.966492,42.571053 775.990112,21.332083 746.520020,9.738679 
	C739.987427,7.168826 732.936096,6.540946 726.154724,3.600581 
	C725.565063,2.813819 725.465759,2.278985 725.777222,1.354571 
	C875.868652,1.000000 1025.737305,1.019995 1175.605835,0.891190 
	C1179.581421,0.887773 1180.148560,2.033774 1180.089722,5.599614 
	C1179.866821,19.084114 1180.000000,32.574497 1180.000000,46.531342 
	C1177.511963,48.247616 1176.724609,46.444534 1176.108765,44.689449 
	C1175.558960,43.122810 1175.414062,41.430870 1175.246216,39.777927 
	C1174.663574,34.041134 1174.688110,34.038635 1168.729980,34.591637 
	C1168.180298,34.391113 1167.978882,34.268356 1167.590820,33.848015 
	C1167.807495,29.868128 1165.960327,27.825731 1162.293945,26.685518 
	C1161.854736,26.290161 1161.687500,26.120358 1161.306763,25.659348 
	C1160.056641,21.569700 1158.488037,18.197617 1154.347290,16.849092 
	C1154.044678,16.750565 1153.699951,16.521677 1153.571045,16.248217 
	C1149.510132,7.635307 1142.077881,10.931010 1135.116455,11.161452 
	C1125.435425,9.252197 1116.278931,6.769654 1106.754517,6.080582 
	C1102.763916,5.791869 1098.788818,5.510988 1094.791138,5.511272 
	C1072.299194,5.512868 1049.807373,5.493535 1027.315430,5.523091 
	C1020.887146,5.531538 1020.533569,5.876319 1020.525391,12.313318 
	C1020.493469,37.470913 1020.553772,62.628712 1020.466553,87.786018 
	C1020.453491,91.555000 1021.564209,94.377052 1024.417847,96.970642 
	C1038.588623,109.850197 1052.760254,122.727737 1067.087280,135.433701 
	C1067.819824,136.083313 1068.533447,136.761368 1069.610962,136.868896 
	C1071.057861,134.984619 1070.453857,132.925034 1070.457886,131.024170 
	C1070.506836,108.199135 1070.470459,85.373940 1070.499146,62.548840 
	C1070.509644,54.165279 1071.171997,53.529243 1079.663940,53.498268 
	C1087.327759,53.470310 1094.994019,53.364212 1102.655151,53.529339 
	C1119.229126,53.886570 1128.384888,63.027706 1128.477295,79.471642 
	C1128.596313,100.630096 1128.593994,121.790031 1128.475952,142.948502 
	C1128.395508,157.358078 1120.771606,165.952591 1106.540283,168.108337 
	C1103.724854,168.534836 1100.894043,168.508469 1098.062500,168.509094 
	C1074.570923,168.514297 1051.079468,168.498779 1027.587891,168.518692 
	C1019.757141,168.525330 1019.529358,168.768951 1019.517029,176.705780 
	C1019.499695,187.868408 1019.462708,199.031357 1019.534424,210.193619 
	C1019.570984,215.870239 1020.134583,216.450439 1025.917480,216.462112 
	C1051.075073,216.512924 1076.233398,216.601318 1101.389771,216.414185 
	C1109.048584,216.357208 1116.594849,214.668045 1124.635010,213.885773 
	C1128.413818,214.642746 1131.709351,215.663437 1135.202148,215.612808 
	C1141.597412,215.520111 1142.772949,214.634079 1144.496704,208.217651 
	C1145.139893,207.514862 1145.619995,207.266006 1146.559570,207.079468 
	C1149.262085,207.300858 1151.555664,207.561005 1153.877808,207.636108 
	C1157.025635,207.737915 1158.445557,206.425644 1160.205444,203.557831 
	C1162.776001,199.369232 1168.289429,197.350189 1170.091797,192.186829 
	C1176.110352,191.641693 1175.526733,187.207306 1175.681641,183.006287 
	C1175.789185,180.094238 1174.763428,176.376785 1179.671875,175.784286 
z"/>
<path fill="#000000" opacity="1.000000" stroke="none" 
	d="
M725.623901,2.611642 
	C736.616455,5.284706 747.153076,7.787963 756.961426,12.924497 
	C775.021362,22.382309 787.704895,36.232883 793.444519,55.971203 
	C795.123291,61.744362 795.876038,67.798576 795.920532,73.778580 
	C796.108582,99.067345 796.450745,124.368813 795.861572,149.645248 
	C795.366394,170.887634 786.469604,188.257874 769.316345,201.376236 
	C759.937073,208.549225 749.691711,213.445663 738.131836,216.535919 
	C733.295959,220.901520 727.434753,219.691071 722.050354,220.415741 
	C718.992676,220.827301 715.841431,220.415466 712.366699,220.771225 
	C709.299988,221.000000 706.599976,221.000000 703.449951,221.000000 
	C699.263306,219.909454 695.449280,220.712677 691.337585,220.768738 
	C691.000000,221.000000 690.500000,221.000000 690.250000,221.000000 
	C684.823242,219.170227 679.288025,218.952744 674.048889,217.257263 
	C654.774780,211.019745 638.357544,200.980957 627.517517,183.258224 
	C622.392334,174.878906 619.375671,165.796204 618.610657,155.996216 
	C616.443054,128.231918 617.783264,100.421013 617.771667,72.636055 
	C617.765381,57.620327 622.761597,43.864288 632.122070,31.907961 
	C634.381653,29.021708 636.779297,26.244446 640.399231,24.216076 
	C643.874084,23.325058 647.025269,23.720249 650.151917,23.611063 
	C651.468811,23.565077 653.647766,23.911753 653.913086,23.066666 
	C655.456055,18.151968 660.077942,16.398438 663.272827,13.207567 
	C663.793701,12.687340 663.680359,11.637661 663.975464,10.439645 
	C664.413025,9.244939 664.958618,8.629969 666.039490,7.950247 
	C675.521484,3.909226 685.011841,1.803676 695.335205,1.515829 
	C703.281311,1.515337 710.792053,1.515870 718.747559,1.515155 
	C721.260132,1.462804 723.255371,1.913357 725.623901,2.611642 
z"/>
<path fill="#000000" opacity="1.000000" stroke="none" 
	d="
M1146.544922,207.360260 
	C1145.899658,207.231598 1145.563965,207.296219 1145.113525,207.597290 
	C1139.838745,212.597900 1133.431030,214.155502 1126.340576,214.915283 
	C1091.723999,220.847382 1057.188354,216.792404 1022.814087,218.053421 
	C1019.124939,218.188751 1017.872253,217.035599 1017.925232,213.262802 
	C1018.116943,199.604660 1018.153381,185.939468 1017.908997,172.283020 
	C1017.834106,168.098053 1019.062866,166.879990 1023.267944,166.908752 
	C1049.588745,167.088760 1075.911621,167.045227 1102.233398,166.962372 
	C1107.755371,166.944992 1113.064819,165.793518 1117.822632,162.668411 
	C1124.036377,158.586914 1126.773560,152.364777 1126.873413,145.482712 
	C1127.206787,122.497375 1127.558350,99.485497 1126.789795,76.521042 
	C1126.329956,62.785866 1119.261475,56.302422 1104.267700,55.133457 
	C1094.994751,54.410500 1085.614868,55.168777 1076.292603,54.911148 
	C1072.835449,54.815598 1071.883179,55.651657 1071.907593,59.217857 
	C1072.080200,84.539192 1071.999268,109.862244 1071.999146,135.184753 
	C1071.999146,137.001068 1071.999146,138.817368 1071.999146,140.478775 
	C1070.609009,141.467270 1069.991943,140.451782 1069.299683,139.816544 
	C1057.160400,128.679092 1045.254395,117.271332 1032.772949,106.532211 
	C1028.573730,102.919235 1025.178955,98.325890 1020.166138,95.637573 
	C1018.786255,94.897514 1018.992615,93.426735 1018.993103,92.092979 
	C1019.003479,63.771751 1019.047913,35.450329 1018.928284,7.129604 
	C1018.916199,4.269893 1020.001099,3.954055 1022.382507,3.959759 
	C1049.204224,4.024009 1076.033203,3.643264 1102.844482,4.175912 
	C1113.609741,4.389778 1124.347900,6.497554 1134.935547,10.351997 
	C1140.057251,10.047302 1143.708130,12.992445 1147.549927,15.038711 
	C1152.630249,17.744547 1157.797119,20.527143 1161.073120,26.031643 
	C1161.126709,26.394924 1161.284546,26.711840 1161.442627,26.791672 
	C1164.640015,27.669476 1166.250854,29.978493 1167.783447,32.834419 
	C1167.956909,33.115261 1168.008423,33.569630 1168.087158,33.784275 
	C1174.788696,39.245728 1176.683716,46.991432 1178.897949,54.530758 
	C1179.255493,55.747833 1179.348755,57.108765 1179.776367,58.702488 
	C1180.000000,94.687561 1180.000000,130.375122 1180.000000,166.531342 
	C1178.519165,171.888931 1176.649902,176.619370 1174.283936,181.152435 
	C1168.090088,193.019989 1158.871338,201.738693 1146.544922,207.360260 
z"/>
<path fill="#000000" opacity="1.000000" stroke="none" 
	d="
M1.358302,218.267410 
	C1.000000,201.312439 1.000000,184.624878 1.000000,167.468658 
	C3.268334,165.079697 6.024392,165.493820 8.650165,165.490051 
	C32.295979,165.456116 55.941856,165.472946 79.587715,165.469803 
	C81.585800,165.469543 83.585472,165.513412 85.581329,165.400620 
	C99.646858,164.605865 107.354622,156.732986 107.434494,142.707031 
	C107.555870,121.393066 107.548607,100.077675 107.436935,78.763626 
	C107.364441,64.925735 99.661949,57.047871 85.832184,56.598694 
	C77.845268,56.339287 69.847260,56.499191 61.854782,56.548775 
	C56.023666,56.584949 55.560009,57.026127 55.547386,62.794384 
	C55.501480,83.775841 55.536461,104.757423 55.522564,125.738953 
	C55.520912,128.232864 55.667622,130.737732 55.054188,133.611252 
	C54.368969,135.254700 53.073673,136.108826 52.181576,135.257660 
	C48.539337,131.782455 42.537533,131.192764 40.545944,125.761986 
	C39.776955,123.665054 38.283714,122.531517 36.112648,122.302780 
	C33.381416,122.015030 31.985605,120.507530 31.683691,117.814667 
	C31.433506,115.583183 30.326788,114.052963 27.898703,113.988945 
	C25.253826,113.919205 24.013018,112.496346 23.726610,110.000282 
	C23.480289,107.853600 22.516825,106.188683 20.348837,105.526993 
	C17.945452,104.793457 16.393425,103.248466 15.447921,100.953522 
	C14.851274,99.505333 13.692872,98.509216 12.232887,98.006477 
	C9.673692,97.125237 7.987410,95.596359 7.546033,92.786987 
	C6.987063,89.229149 3.595256,90.545860 1.293497,89.234253 
	C1.000000,60.979103 1.000000,32.958210 1.000000,4.468657 
	C2.796863,2.415514 5.009541,2.556554 7.167567,2.555305 
	C32.329445,2.540731 57.498375,2.180237 82.650734,2.678875 
	C99.291672,3.008776 115.463585,6.426949 130.101501,14.886081 
	C149.208084,25.927601 160.447144,42.380981 163.354004,64.393013 
	C164.228592,71.015724 164.522186,77.646812 164.496613,84.324295 
	C164.413681,105.986542 164.865768,127.658623 164.353775,149.309265 
	C163.824417,171.695633 155.388107,190.476028 136.489044,203.595825 
	C123.867447,212.357819 109.618919,217.013718 94.476395,218.322479 
	C64.884743,220.880066 35.201447,218.922501 5.562624,219.415771 
	C4.225506,219.438034 2.896132,219.274475 1.358302,218.267410 
z"/>
<path fill="#FFFFFF" opacity="1.000000" stroke="none" 
	d="
M1.000000,218.500000 
	C27.814901,217.999969 54.632912,218.246460 81.443542,217.908234 
	C97.744820,217.702576 113.631439,214.751740 128.216782,206.953857 
	C147.683853,196.546021 159.045410,180.448486 162.040146,158.435181 
	C163.997681,144.046143 162.653763,129.622330 162.942688,115.218773 
	C163.213196,101.733475 163.380905,88.224770 162.895386,74.751541 
	C162.390350,60.736603 159.438797,47.256935 151.020096,35.517365 
	C141.465210,22.193436 128.427734,13.909864 113.008057,9.022084 
	C102.555901,5.708922 91.762756,4.188216 80.882256,4.083029 
	C54.569469,3.828652 28.252562,4.000472 1.468657,4.000244 
	C0.085303,0.581774 2.299286,0.973353 4.490745,0.975019 
	C48.427937,1.008439 92.365166,1.000000 136.302383,1.000000 
	C192.222488,1.000000 248.142578,1.000000 304.531342,1.000000 
	C306.942474,4.847333 305.536774,7.721218 302.200562,9.803446 
	C300.613037,10.794242 298.885437,11.456994 298.944946,14.113470 
	C298.463104,17.300819 296.110931,18.504829 294.172974,20.018148 
	C280.258972,30.883314 272.901337,45.485409 272.708984,62.769173 
	C272.373474,92.920326 286.975861,113.974419 316.067657,125.758492 
	C323.676788,128.840698 331.616852,130.572281 339.719849,131.871353 
	C348.796295,133.326462 357.631073,135.804779 365.638336,140.567383 
	C369.976257,143.147552 373.133911,146.735825 374.068054,151.806580 
	C375.241913,158.178299 372.174683,163.842499 365.802307,167.507065 
	C356.679688,172.753220 346.854675,171.701981 337.053864,170.579269 
	C335.081451,170.353287 333.166077,169.658096 330.852539,169.090851 
	C323.667236,166.761459 317.265472,163.722824 311.289185,159.079910 
	C310.595123,158.579453 310.211151,158.262848 309.848938,157.921494 
	C303.346008,151.793015 303.346252,151.792755 296.921295,158.192993 
	C294.761719,159.898941 292.672821,161.158157 290.855896,163.261932 
	C288.737701,165.301453 286.880402,167.137939 284.835144,169.252792 
	C283.982635,170.119736 283.328491,170.718124 282.450562,171.576218 
	C278.863342,174.654907 275.385193,177.349594 272.437927,181.065170 
	C271.856903,183.484039 273.426514,184.752441 274.549927,186.020569 
	C278.782959,190.798859 283.059875,195.558136 288.634460,199.459869 
	C298.840424,207.484909 309.810120,213.222061 322.050140,216.457596 
	C323.974396,216.966248 325.960785,217.307220 327.980286,218.625229 
	C328.487549,219.359314 328.547729,219.854828 328.220581,220.685394 
	C301.312439,221.000000 274.624878,221.000000 247.468658,221.000000 
	C245.894104,219.821838 245.402908,218.347778 244.881042,216.370682 
	C244.246490,212.765106 244.404770,209.594376 244.404297,206.433701 
	C244.394669,142.812637 244.399658,79.191574 244.395187,15.570513 
	C244.394485,5.613907 244.382584,5.608192 234.529312,5.604232 
	C223.037552,5.599613 211.545654,5.569582 200.054062,5.617651 
	C194.051056,5.642762 193.627090,5.996312 193.624252,11.702062 
	C193.591461,77.488213 193.585464,143.274399 193.627213,209.060547 
	C193.631226,215.389755 194.504547,216.262665 200.895569,216.349854 
	C211.386749,216.492935 221.880142,216.369965 232.372498,216.406921 
	C234.862640,216.415695 237.378082,216.217712 240.251038,217.232147 
	C241.594788,218.158035 241.729630,219.090195 241.247009,220.566528 
	C162.329208,221.000000 83.658394,221.011307 4.987756,220.898804 
	C3.729844,220.897018 0.687824,222.939255 1.000000,218.500000 
z"/>
<path fill="#000000" opacity="1.000000" stroke="none" 
	d="
M328.236206,219.341675 
	C313.213226,216.254761 299.974335,210.005753 288.022888,200.370483 
	C288.317871,196.615280 287.503418,194.123398 283.431610,193.931244 
	C282.609894,193.892487 281.875092,193.384018 281.267822,192.785126 
	C278.458008,190.013916 279.607025,177.824417 283.116486,175.995682 
	C285.906250,174.541962 288.122986,172.896484 289.138550,169.827621 
	C289.457916,168.862549 290.332825,168.150574 291.287354,167.858292 
	C294.922974,166.745117 296.470642,164.001236 297.423981,160.260895 
	C298.202881,159.425934 298.894806,159.222946 300.006470,159.247910 
	C301.591064,159.692093 302.652161,160.827454 304.473022,160.088318 
	C306.012421,159.766541 307.225403,159.718979 308.814819,159.721497 
	C311.548279,159.910477 313.367859,160.944061 313.963287,163.324188 
	C314.599976,165.869293 316.251160,166.687439 318.653809,166.794220 
	C322.240021,166.953629 325.640808,168.689941 329.682190,167.990173 
	C337.727264,169.799026 345.527344,170.370514 353.436462,170.025146 
	C360.816956,169.702866 370.755676,164.103073 372.297607,158.578537 
	C373.858643,152.985474 372.713470,147.108368 366.793091,143.007523 
	C357.978851,136.902222 347.832703,134.703110 337.444397,132.922897 
	C320.544342,130.026764 304.873871,124.336098 291.828735,112.453156 
	C281.308014,102.869759 274.524109,91.182961 272.367218,77.421257 
	C269.608643,59.820366 271.956421,43.065475 283.795380,28.450024 
	C287.996521,23.263615 293.072998,19.425890 298.298035,15.087902 
	C298.228271,12.734622 300.090668,12.558977 301.273682,11.924841 
	C311.548767,6.417085 322.215088,2.100288 334.455078,1.515904 
	C336.688171,1.489692 338.526123,1.574854 340.680969,1.228629 
	C345.024536,1.000000 349.049103,1.000000 353.536804,1.000000 
	C356.582031,2.086578 359.289124,1.250926 362.324585,1.515273 
	C364.855652,1.277076 366.899139,2.127759 369.409241,2.036594 
	C372.593536,2.439770 375.283203,3.290102 378.387817,4.022883 
	C386.446320,6.949536 394.038177,9.980694 401.027679,15.098152 
	C404.654572,18.097567 409.012970,19.737572 411.060913,24.419025 
	C411.589661,28.279247 411.449921,31.766851 411.351868,35.247002 
	C411.236450,39.342461 410.252625,42.824390 405.349945,43.598000 
	C402.529877,44.042992 402.557068,46.485920 402.218079,49.017838 
	C398.851715,55.584808 392.951141,58.801926 387.294983,62.200806 
	C385.271515,63.416737 383.507324,61.652756 381.971191,60.394794 
	C377.044250,56.359951 371.734772,52.946434 365.875244,50.438946 
	C357.571503,46.885498 349.049194,45.281570 340.080719,47.631531 
	C336.114838,48.670685 332.621246,50.419857 329.879303,53.552525 
	C323.712311,60.598373 324.511749,69.303909 332.030365,74.855133 
	C339.201385,80.149719 347.667603,82.079254 356.210846,83.696457 
	C371.010040,86.497887 385.386444,90.468681 398.554993,98.115204 
	C417.615967,109.183258 426.005768,126.374458 427.273438,147.686859 
	C428.999908,176.713791 415.097107,196.459381 390.342590,209.786377 
	C383.544312,213.446335 376.301025,215.871246 368.597046,218.222351 
	C363.445038,219.639984 358.519165,219.972153 353.314941,220.771912 
	C353.000000,221.000000 352.500000,221.000000 352.250000,221.000000 
	C345.606628,219.898071 339.167816,220.714294 332.376190,220.772217 
	C332.000000,221.000000 331.500000,221.000000 331.250000,221.000000 
	C330.277405,220.301590 329.250427,220.121872 328.236206,219.341675 
z"/>
<path fill="#000000" opacity="1.000000" stroke="none" 
	d="
M537.625427,1.227449 
	C538.000000,1.000000 538.500000,1.000000 538.750000,1.000000 
	C542.312378,2.353267 545.940369,1.740426 549.698669,2.704783 
	C554.782043,3.776959 559.163818,5.735320 563.970215,7.621126 
	C568.872498,9.884534 573.106506,12.555395 577.632568,15.500450 
	C588.457642,23.285902 595.933472,33.408733 602.160767,44.550838 
	C604.990662,49.614361 604.362732,51.591835 599.009155,53.804508 
	C587.624023,58.510109 576.135620,62.964523 564.719482,67.594978 
	C561.121826,69.054207 558.661865,68.494156 556.113281,65.296585 
	C544.395142,50.594395 520.903809,48.037277 506.170288,59.619579 
	C501.666321,63.160206 499.456085,67.902397 499.425598,73.503212 
	C499.289612,98.475517 499.216675,123.449661 499.448578,148.420700 
	C499.541870,158.464844 510.063873,167.607056 522.076904,168.510803 
	C526.214233,168.822037 530.393066,168.913544 534.907715,168.198456 
	C543.730896,165.902405 550.677551,161.606842 555.173950,153.873718 
	C556.231140,152.055496 557.641907,150.788315 560.314819,151.143768 
	C562.100647,151.643997 563.374512,152.412140 565.072266,153.131699 
	C576.940857,158.457779 588.360901,163.876465 599.859680,169.124191 
	C605.773987,171.823288 605.927185,172.861618 602.590454,178.583908 
	C596.383423,189.228790 588.290100,198.161972 578.242126,205.306702 
	C576.748718,206.368561 575.235779,207.396790 573.704224,208.987671 
	C572.840210,209.652084 572.169922,209.903412 571.155396,210.227432 
	C568.657654,211.014603 566.859558,212.436356 564.501038,213.496902 
	C563.777954,213.823807 563.353821,213.985809 562.601929,214.247574 
	C560.336975,215.073318 558.444824,215.915314 556.160767,216.736267 
	C554.672363,217.281021 553.493408,217.622360 551.957764,218.119049 
	C547.452698,219.438278 543.162170,219.763672 538.514587,220.476715 
	C530.982422,220.523895 523.874023,220.403809 516.383179,220.773285 
	C516.000000,221.000000 515.500000,221.000000 515.250000,221.000000 
	C513.979248,220.108276 512.733643,220.003326 511.065918,219.978607 
	C487.866821,216.894745 468.889801,206.989990 455.044983,188.297913 
	C446.982635,177.412842 442.931274,164.848953 442.735107,151.451981 
	C442.335663,124.169228 442.151245,96.866287 442.780426,69.592094 
	C443.196198,51.569695 450.531616,36.074650 464.174500,23.402433 
	C466.410370,21.236023 468.779602,19.866476 471.096710,17.853035 
	C471.566559,17.484737 471.758881,17.344963 472.247498,17.011280 
	C476.034546,14.524180 479.574829,12.315700 483.664001,10.332752 
	C485.307495,9.494036 486.647644,8.854060 488.335083,8.029274 
	C498.973724,3.875550 509.513702,1.189049 521.077271,1.515635 
	C526.751709,1.477789 532.001770,1.592973 537.625427,1.227449 
z"/>
<path fill="#FFFFFF" opacity="1.000000" stroke="none" 
	d="
M551.775513,217.464600 
	C553.000854,216.551743 553.906799,215.676834 555.601929,215.937149 
	C558.568542,217.048386 560.227661,215.770844 561.789612,213.432892 
	C562.436157,213.108200 562.871460,213.050156 563.633240,212.937164 
	C568.726746,216.925720 568.141052,211.523010 569.791382,209.431427 
	C570.528076,208.805771 571.055298,208.445190 571.910522,208.125748 
	C574.544617,208.399704 576.849609,208.524261 579.143921,208.057312 
	C580.283203,207.825424 581.893494,207.897263 582.407227,207.046387 
	C584.768188,203.135590 588.378357,200.432541 591.270752,197.101532 
	C592.842102,195.291885 593.514587,192.870041 596.308716,192.376083 
	C596.954590,192.261917 597.834106,192.023300 598.038635,191.482559 
	C599.727295,187.017822 602.466309,184.186752 607.183350,182.239883 
	C610.144836,181.017563 607.663818,171.516113 604.221924,170.281403 
	C601.948914,169.465988 600.508850,168.140533 599.929810,165.882065 
	C598.916992,161.931290 595.997681,161.201889 592.587524,161.673187 
	C588.099121,162.293503 583.718140,163.342468 583.636353,156.327927 
	C583.612305,154.265778 581.212219,154.239197 579.594177,154.517914 
	C574.912354,155.324448 570.329346,154.204987 565.328857,154.085342 
	C563.712646,153.659180 562.468750,153.203720 561.091125,152.431915 
	C560.557129,151.588699 560.189819,151.049973 559.965088,150.412903 
	C559.492249,149.072205 559.589233,147.175140 557.621460,147.050491 
	C555.556458,146.919724 555.477234,148.796722 555.125122,150.167694 
	C554.452515,152.787064 552.748169,153.995407 550.156311,154.227646 
	C548.858337,154.343979 546.781067,154.226929 546.666382,155.504868 
	C546.238220,160.274719 543.096558,161.898285 539.246521,163.458023 
	C537.515991,164.159073 537.847229,167.062042 536.256042,168.839523 
	C520.477600,172.705002 503.834869,167.140350 498.749115,153.474548 
	C498.062836,151.630447 498.038513,149.968765 498.034912,148.231033 
	C497.984558,123.911232 498.000732,99.591293 498.000671,75.271385 
	C498.000641,64.168449 504.644745,55.955776 515.314026,52.951496 
	C528.612671,49.206833 540.811401,50.949398 552.094116,58.991985 
	C554.001526,60.351612 556.049683,61.775497 556.894592,63.861794 
	C558.730347,68.394142 561.221375,67.693855 564.919067,66.107674 
	C575.658203,61.500942 586.606934,57.385277 597.436768,52.986664 
	C605.167358,49.846848 604.122498,50.659275 600.422913,44.093414 
	C594.484863,33.554920 587.205933,23.941927 577.081665,16.432791 
	C575.769104,14.389152 574.651794,12.720570 572.709717,11.561472 
	C569.007080,9.351622 567.447449,5.975602 568.760254,1.310790 
	C601.020874,1.000000 633.041809,1.000000 665.531372,1.000000 
	C666.951355,3.331989 667.044861,5.830276 667.204590,8.554622 
	C666.392822,8.986451 665.786865,9.139489 665.069214,9.588770 
	C662.120728,13.133580 657.888977,14.064195 654.390747,16.217167 
	C650.023499,18.904955 646.047302,22.190397 641.187622,24.767914 
	C628.440063,35.740261 621.427979,49.357487 620.025696,65.734985 
	C617.668091,93.269661 619.044983,120.871941 619.197327,148.430511 
	C619.304443,167.812698 626.648926,184.688950 641.405273,197.950409 
	C651.203125,206.755646 662.790161,211.994934 675.114075,216.064270 
	C679.960449,217.664551 685.238159,217.680328 689.893433,220.626251 
	C644.645752,221.000000 599.291565,221.000000 553.468628,221.000000 
	C552.115234,220.100632 551.240601,219.196732 551.775513,217.464600 
z"/>
<path fill="#FFFFFF" opacity="1.000000" stroke="none" 
	d="
M473.212585,17.535984 
	C472.999054,17.834215 472.569916,17.991850 472.342773,18.017448 
	C470.180328,19.574512 466.447662,18.617456 466.116516,22.708632 
	C457.518555,31.413408 450.603027,40.862888 447.138367,52.535286 
	C445.575562,57.800396 444.056030,63.116730 444.039368,68.630623 
	C443.954865,96.598969 443.370728,124.586647 444.211243,152.529968 
	C444.821167,172.805756 454.007965,189.415405 470.212097,202.080582 
	C480.191803,209.880753 491.604584,214.344925 503.549652,217.730316 
	C505.977203,218.418335 508.698883,218.127106 511.585632,219.088898 
	C512.349670,219.519623 512.495239,219.943222 512.217773,220.718613 
	C464.312439,221.000000 416.624878,221.000000 368.468658,221.000000 
	C367.207031,220.048950 366.981934,219.005402 367.743286,217.504852 
	C380.243927,213.577866 392.134125,208.997375 402.092438,200.895554 
	C413.930542,191.264435 422.787994,179.648911 425.115936,163.764725 
	C427.229401,149.344208 425.903381,135.478012 419.884491,122.335396 
	C414.796295,111.224945 406.044128,103.293251 395.219513,97.677269 
	C382.549164,91.103722 369.034851,87.329597 355.003693,84.898415 
	C345.667542,83.280739 336.556976,80.550491 328.933685,74.423820 
	C323.498749,70.055893 322.949646,59.294483 328.106384,53.473572 
	C334.592438,46.152168 342.904846,44.629726 352.364075,45.601555 
	C365.049438,46.904827 375.229736,52.902397 384.471039,61.033974 
	C385.895325,62.287228 386.526550,61.809795 387.726257,60.844028 
	C392.012543,57.393631 396.427551,54.103123 400.918335,50.433971 
	C405.261505,45.401299 410.451904,41.837299 415.541779,38.206425 
	C418.811981,35.873615 418.935272,33.948849 416.113739,31.235497 
	C413.996552,29.199471 411.542786,27.373871 410.227356,24.181089 
	C407.823486,20.611429 404.140472,19.150902 401.084534,16.435738 
	C399.769043,14.389297 398.651917,12.720516 396.709808,11.561456 
	C393.006989,9.351645 391.447540,5.975598 392.760254,1.310795 
	C425.020905,1.000000 457.041779,1.000000 489.531342,1.000000 
	C491.469208,3.876846 489.793762,6.134439 488.285461,8.793865 
	C487.234009,10.264982 485.924591,10.536943 484.387360,11.058010 
	C483.046783,10.978842 482.014008,11.386595 481.089813,11.243032 
	C476.322540,10.502469 474.033447,12.751792 473.212585,17.535984 
z"/>
<path fill="#FFFFFF" opacity="1.000000" stroke="none" 
	d="
M53.640236,135.290070 
	C53.888809,109.863701 54.018238,84.727890 53.915298,59.593033 
	C53.900780,56.048393 54.474030,54.733173 58.414833,54.888054 
	C67.391357,55.240849 76.391426,55.034756 85.381554,54.986137 
	C90.886215,54.956371 95.622482,56.824158 100.357277,59.628086 
	C106.615051,63.333916 108.765205,69.195816 108.860382,75.506630 
	C109.211823,98.809738 109.411606,122.131424 108.841797,145.425888 
	C108.512802,158.875870 100.133095,166.573700 85.844490,166.843979 
	C57.884453,167.372818 29.907352,166.999329 1.468657,166.999664 
	C1.000000,142.979111 1.000000,118.958214 1.000000,94.468658 
	C2.574068,93.363838 3.528218,94.484863 4.438883,95.362541 
	C13.153758,103.761795 22.450672,111.522789 31.176773,119.916191 
	C37.377991,125.880974 44.203468,131.178528 50.404568,137.162567 
	C52.918049,139.588058 52.748371,136.718414 53.640236,135.290070 
z"/>
<path fill="#010101" opacity="1.000000" stroke="none" 
	d="
M53.494595,134.954529 
	C53.833435,136.815384 53.833435,138.631546 53.833435,141.511414 
	C35.818207,125.763931 18.524139,110.196297 1.331399,94.070282 
	C1.000000,92.611107 1.000000,91.222221 1.000000,89.416664 
	C5.278293,88.288239 9.587318,87.527374 9.066206,94.227798 
	C9.053980,94.385002 9.108964,94.676064 9.181672,94.692909 
	C14.494768,95.924026 16.035671,101.838203 20.459414,103.906746 
	C23.323818,105.246147 25.404726,106.331871 25.037951,109.881577 
	C24.853447,111.667229 25.075338,113.204750 27.739378,112.652657 
	C31.260059,111.923035 33.203320,113.612167 32.954109,117.202087 
	C32.729786,120.433586 34.251598,121.309395 37.100525,121.011124 
	C39.198402,120.791489 40.972260,121.706322 41.244900,123.723175 
	C41.768452,127.596115 44.129044,129.336227 47.529583,130.259903 
	C50.104366,130.959274 50.552956,134.239304 53.494595,134.954529 
z"/>
<path fill="#FFFFFF" opacity="1.000000" stroke="none" 
	d="
M1146.620361,207.471832 
	C1159.108643,199.675171 1169.547974,189.961151 1175.659424,176.000824 
	C1176.959351,173.031845 1176.919922,169.559677 1179.596436,167.004181 
	C1180.000000,169.700012 1180.000000,172.400024 1180.000000,175.550018 
	C1177.306274,176.207138 1176.958008,178.049652 1176.991089,180.227142 
	C1177.031494,182.874130 1177.024170,185.522644 1176.987671,188.169800 
	C1176.945312,191.227661 1175.894897,193.368576 1172.304688,193.000778 
	C1169.596069,192.723282 1168.910767,194.154495 1168.966431,196.580505 
	C1169.038696,199.725632 1168.424194,202.233337 1164.159180,201.257507 
	C1161.725220,200.700607 1160.918091,202.521835 1161.038574,204.578720 
	C1161.249756,208.182968 1159.391479,209.304977 1156.162109,208.997208 
	C1153.094971,208.704895 1149.836060,209.843353 1146.620361,207.471832 
z"/>
<path fill="#FEFEFE" opacity="1.000000" stroke="none" 
	d="
M335.242371,1.625487 
	C322.385223,4.291663 310.048279,7.505959 298.883728,14.894302 
	C296.907288,12.522997 296.803986,9.908079 299.774811,9.400035 
	C304.579498,8.578382 304.523773,5.183812 304.999207,1.401370 
	C314.687561,1.000000 324.375122,1.000000 334.531342,1.000000 
	C335.161560,1.138997 335.323120,1.277994 335.242371,1.625487 
z"/>
<path fill="#FFFFFF" opacity="1.000000" stroke="none" 
	d="
M392.535339,1.000000 
	C393.408600,5.395811 393.584564,9.854581 399.148773,11.258121 
	C401.109711,11.752750 401.018341,13.660655 400.968689,15.715046 
	C393.967834,12.173272 387.119385,7.934598 379.115601,5.453042 
	C378.196533,4.075122 377.927856,2.966329 378.746796,1.371416 
	C383.356903,1.000000 387.713806,1.000000 392.535339,1.000000 
z"/>
<path fill="#FEFEFE" opacity="1.000000" stroke="none" 
	d="
M488.440094,9.061638 
	C487.858643,6.454197 489.290924,4.204874 489.958618,1.375196 
	C500.020905,1.000000 510.041779,1.000000 520.531372,1.000000 
	C521.161621,1.138929 521.323181,1.277859 521.242432,1.625252 
	C509.853729,2.317519 499.354950,5.704394 488.440094,9.061638 
z"/>
<path fill="#FEFEFE" opacity="1.000000" stroke="none" 
	d="
M667.377686,8.800245 
	C666.478455,6.485569 663.884583,4.450243 665.963013,1.358125 
	C675.354248,1.000000 684.708435,1.000000 694.531372,1.000000 
	C695.161621,1.138986 695.323181,1.277971 695.242432,1.625541 
	C685.786499,3.624567 676.435303,4.874425 667.377686,8.800245 
z"/>
<path fill="#FEFEFE" opacity="1.000000" stroke="none" 
	d="
M568.539368,1.000000 
	C569.408508,5.395844 569.584534,9.854533 575.148743,11.258030 
	C577.109680,11.752628 577.018372,13.660554 576.968628,15.714958 
	C572.860657,13.787804 568.763672,11.460534 564.333618,8.983691 
	C563.178223,7.023544 561.581360,6.449687 559.793335,5.996311 
	C557.611694,5.443132 555.793823,4.437779 556.768555,1.311404 
	C560.692932,1.000000 564.385803,1.000000 568.539368,1.000000 
z"/>
<path fill="#FFFFFF" opacity="1.000000" stroke="none" 
	d="
M1180.000000,58.539364 
	C1176.656616,53.842632 1176.266968,47.483765 1173.090698,42.215199 
	C1171.539062,39.641651 1170.194702,36.962128 1168.173828,34.348938 
	C1169.279785,33.682739 1170.382935,33.321239 1171.509277,33.058102 
	C1176.809570,31.819860 1176.413818,31.933342 1176.472412,37.624283 
	C1176.503784,40.670506 1175.350098,44.738201 1179.620117,46.950661 
	C1180.000000,50.692909 1180.000000,54.385818 1180.000000,58.539364 
z"/>
<path fill="#FFFFFF" opacity="1.000000" stroke="none" 
	d="
M712.468628,221.000000 
	C712.497864,219.345184 713.908020,219.972931 714.870667,220.043259 
	C722.517456,220.601929 729.784546,218.526749 737.544556,216.937820 
	C737.971558,217.981796 737.985779,219.079300 738.000000,220.588394 
	C729.645752,221.000000 721.291504,221.000000 712.468628,221.000000 
z"/>
<path fill="#FFFFFF" opacity="1.000000" stroke="none" 
	d="
M556.562500,1.000000 
	C556.847351,3.620120 557.915771,5.151591 560.706482,4.984025 
	C562.929199,4.850559 564.223572,5.595008 563.997864,8.437204 
	C559.590027,7.221047 555.179443,5.607979 550.384644,3.914655 
	C549.402588,3.198156 549.286194,2.460196 549.768860,1.322263 
	C552.041687,1.000000 554.083313,1.000000 556.562500,1.000000 
z"/>
<path fill="#FFFFFF" opacity="1.000000" stroke="none" 
	d="
M551.591736,217.089417 
	C552.315308,218.222885 552.629822,219.279129 552.972168,220.667679 
	C548.643127,221.000000 544.286194,221.000000 539.464661,221.000000 
	C538.838440,220.861038 538.676819,220.722092 538.757629,220.374695 
	C542.790466,218.070221 547.173157,218.261749 551.591736,217.089417 
z"/>
<path fill="#FEFEFE" opacity="1.000000" stroke="none" 
	d="
M367.597046,217.093399 
	C368.000549,218.188812 368.000275,219.211060 368.000000,220.616653 
	C363.310760,221.000000 358.621490,221.000000 353.466125,221.000000 
	C357.263397,218.005493 362.662811,219.062378 367.597046,217.093399 
z"/>
<path fill="#FFFFFF" opacity="1.000000" stroke="none" 
	d="
M378.550049,1.000000 
	C378.993805,2.097755 378.987610,3.195510 378.969360,4.704762 
	C376.094116,4.957787 373.340637,4.333972 370.357269,3.002866 
	C369.655640,2.478679 369.500000,2.058496 369.782227,1.281424 
	C372.700012,1.000000 375.400024,1.000000 378.550049,1.000000 
z"/>
<path fill="#FFFFFF" opacity="1.000000" stroke="none" 
	d="
M695.463196,1.911616 
	C695.000183,1.834126 695.000000,1.417063 695.000000,1.208531 
	C703.020935,1.000000 711.041809,1.000000 719.531372,1.000000 
	C720.161621,1.139058 720.323242,1.278116 720.242065,1.625299 
	C711.974854,1.885318 703.950562,1.937212 695.463196,1.911616 
z"/>
<path fill="#FFFFFF" opacity="1.000000" stroke="none" 
	d="
M538.537109,220.088928 
	C539.000000,220.166245 539.000000,220.583130 539.000000,220.791565 
	C531.645752,221.000000 524.291504,221.000000 516.468628,221.000000 
	C519.072021,218.864639 522.515930,220.265991 525.773376,220.062408 
	C529.858765,219.807098 533.972595,220.007736 538.537109,220.088928 
z"/>
<path fill="#FEFEFE" opacity="1.000000" stroke="none" 
	d="
M549.541931,1.000000 
	C550.000000,1.708600 550.000000,2.417199 550.000183,3.480098 
	C546.291199,3.789546 542.814148,2.546046 539.124878,1.376541 
	C542.361267,1.000000 545.722595,1.000000 549.541931,1.000000 
z"/>
<path fill="#FFFFFF" opacity="1.000000" stroke="none" 
	d="
M245.558746,216.811462 
	C247.200607,217.735596 246.957184,219.041534 246.999756,220.625275 
	C245.285645,221.000000 243.571289,221.000000 241.428467,221.000000 
	C241.000046,220.291656 241.000076,219.583313 241.000366,218.520798 
	C241.818130,215.992798 243.629288,216.618134 245.558746,216.811462 
z"/>
<path fill="#FFFFFF" opacity="1.000000" stroke="none" 
	d="
M332.468384,221.000000 
	C338.477661,218.860046 345.108063,220.395828 351.832886,220.591309 
	C345.645599,221.000000 339.291199,221.000000 332.468384,221.000000 
z"/>
<path fill="#FFFFFF" opacity="1.000000" stroke="none" 
	d="
M521.461792,1.910962 
	C521.000122,1.833717 521.000000,1.416859 521.000000,1.208429 
	C526.354919,1.000000 531.709900,1.000000 537.532410,1.000000 
	C532.756409,3.204052 527.268127,1.426961 521.461792,1.910962 
z"/>
<path fill="#FFFFFF" opacity="1.000000" stroke="none" 
	d="
M691.460632,221.000000 
	C694.766296,218.897919 698.778015,220.343140 702.839661,220.596008 
	C699.307068,221.000000 695.614197,221.000000 691.460632,221.000000 
z"/>
<path fill="#FFFFFF" opacity="1.000000" stroke="none" 
	d="
M369.562500,1.000000 
	C370.000000,1.407562 370.000000,1.815124 370.000183,2.528358 
	C367.765228,3.781011 365.903961,1.983016 363.398682,1.911769 
	C362.838654,1.695331 362.676941,1.556343 362.757599,1.208678 
	C365.041656,1.000000 367.083344,1.000000 369.562500,1.000000 
z"/>
<path fill="#FEFEFE" opacity="1.000000" stroke="none" 
	d="
M720.385864,1.913708 
	C719.999207,1.833424 720.000000,1.416712 720.000000,1.208356 
	C721.714172,1.000000 723.428284,1.000000 725.571228,1.000000 
	C726.000000,1.407543 726.000000,1.815087 726.000427,2.528287 
	C724.118103,3.425044 722.435913,2.767965 720.385864,1.913708 
z"/>
<path fill="#FFFFFF" opacity="1.000000" stroke="none" 
	d="
M362.550018,1.000000 
	C363.000000,1.000000 363.000000,1.417160 363.000183,1.625740 
	C360.102661,1.822337 357.205017,1.810355 354.153687,1.399186 
	C356.700012,1.000000 359.400024,1.000000 362.550018,1.000000 
z"/>
<path fill="#FFFFFF" opacity="1.000000" stroke="none" 
	d="
M335.406616,1.911370 
	C335.000000,1.833983 335.000000,1.416991 335.000000,1.208496 
	C336.714355,1.000000 338.428711,1.000000 340.571533,1.000000 
	C339.589478,2.999865 337.522614,1.556601 335.406616,1.911370 
z"/>
<path fill="#FFFFFF" opacity="1.000000" stroke="none" 
	d="
M327.999695,219.471954 
	C329.355682,218.576065 330.062439,219.571442 330.931213,220.669556 
	C330.250000,221.000000 329.500000,221.000000 328.375000,221.000000 
	C328.000000,220.592514 328.000000,220.185043 327.999695,219.471954 
z"/>
<path fill="#FFFFFF" opacity="1.000000" stroke="none" 
	d="
M512.375000,221.000000 
	C512.000000,220.592514 512.000000,220.185013 511.999695,219.471924 
	C513.355652,218.576126 514.062500,219.571335 514.931274,220.669556 
	C514.250000,221.000000 513.500000,221.000000 512.375000,221.000000 
z"/>
<path fill="#000000" opacity="1.000000" stroke="none" 
	d="
M992.769165,202.274002 
	C996.748474,207.376068 1000.474731,212.214096 1004.201782,217.053207 
	C1002.831543,218.567749 1001.423645,217.963867 1000.217590,217.966782 
	C980.885010,218.013672 961.552063,217.964615 942.219666,218.040131 
	C939.390442,218.051178 937.656433,217.331223 935.828186,214.775253 
	C920.671692,193.585953 905.299622,172.549484 889.829102,151.587494 
	C887.375000,148.262161 883.285461,150.008423 880.080078,150.252487 
	C877.946289,150.414978 879.063721,153.324371 879.056519,154.939758 
	C878.968384,174.605423 878.929138,194.272110 879.070618,213.937149 
	C879.093262,217.091034 878.424683,218.131302 875.048950,218.088074 
	C859.551941,217.889603 844.050232,217.916855 828.552124,218.064011 
	C825.083679,218.096924 823.932312,217.032623 823.936646,213.499832 
	C824.021301,145.168732 824.016541,76.837463 823.937866,8.506342 
	C823.934631,5.685522 824.681641,4.927683 827.505005,4.936857 
	C858.503723,5.037572 889.533997,4.158246 920.490845,5.300386 
	C940.632751,6.043512 959.396484,12.675722 973.175232,28.774275 
	C980.758484,37.634190 985.161987,48.155521 986.954468,59.665852 
	C987.882080,65.622101 989.118042,71.687553 988.851929,77.642792 
	C988.072754,95.078636 985.227783,112.112488 973.897156,126.317131 
	C968.766724,132.748856 962.451294,138.028015 954.931335,141.511719 
	C947.616882,144.900208 947.208923,144.960526 952.083679,151.203918 
	C965.403076,168.262741 979.018188,185.090607 992.769165,202.274002 
z"/>
<path fill="#FFFFFF" opacity="1.000000" stroke="none" 
	d="
M1161.349487,26.033405 
	C1153.858887,19.374914 1145.335815,14.410778 1135.553955,10.780819 
	C1139.919312,7.330286 1146.456421,8.153015 1149.754395,9.833328 
	C1153.591064,11.788126 1157.060181,16.466049 1160.638428,20.014879 
	C1161.620483,20.988894 1162.302856,23.601889 1161.349487,26.033405 
z"/>
<path fill="#FFFFFF" opacity="1.000000" stroke="none" 
	d="
M1126.203613,215.188828 
	C1132.060303,212.602493 1138.468140,211.126678 1144.624390,207.912140 
	C1144.999268,215.694763 1140.579102,218.607193 1131.175781,216.855530 
	C1129.571655,216.556702 1128.024048,215.954315 1126.203613,215.188828 
z"/>
<path fill="#FFFFFF" opacity="1.000000" stroke="none" 
	d="
M1168.000122,32.749893 
	C1165.949829,31.204300 1163.942749,29.293343 1161.768066,27.126945 
	C1167.762329,26.349155 1169.038696,27.441360 1168.000122,32.749893 
z"/>
<path fill="#FFFFFF" opacity="1.000000" stroke="none" 
	d="
M696.671997,51.044785 
	C706.687378,50.903473 716.390015,50.190937 725.623840,54.010693 
	C735.184937,57.965851 742.110535,63.823334 742.035950,76.611458 
	C741.905762,98.917450 741.633362,121.233269 742.151367,143.527985 
	C742.418213,155.014755 737.677124,162.538223 727.498108,166.770706 
	C711.958313,173.232162 696.583435,172.652847 682.050964,163.904572 
	C676.031494,160.280914 672.975281,154.403107 672.986877,147.125046 
	C673.024841,123.320145 673.044800,99.514961 672.951294,75.710358 
	C672.937561,72.210541 673.537964,68.969887 675.058472,65.440964 
	C674.887268,63.198418 675.948608,61.915321 677.098938,60.741787 
	C682.398682,55.335388 688.569946,51.608887 696.671997,51.044785 
z"/>
<path fill="#010101" opacity="1.000000" stroke="none" 
	d="
M641.360229,24.970224 
	C647.350586,17.924789 655.826782,14.028600 664.586426,9.940338 
	C665.229431,13.705295 665.516785,17.349611 659.841003,17.295689 
	C657.848816,17.276760 656.723572,19.041712 657.004761,21.239910 
	C657.424683,24.522570 655.627197,25.158152 652.820435,25.036520 
	C649.164673,24.878096 645.497192,24.988483 641.360229,24.970224 
z"/>
<path fill="#010101" opacity="1.000000" stroke="none" 
	d="
M696.948914,50.713120 
	C689.730103,53.635555 682.308655,55.966797 677.184204,62.335114 
	C676.599670,63.061554 676.223999,63.956017 675.434509,64.906586 
	C671.719055,61.281044 672.257935,58.440235 677.024536,57.257511 
	C679.731750,56.585770 681.215332,55.704834 681.022705,52.772430 
	C680.840759,50.001015 682.385376,48.692730 684.993042,49.047478 
	C688.939087,49.584312 693.164612,47.513233 696.948914,50.713120 
z"/>
<path fill="#000000" opacity="1.000000" stroke="none" 
	d="
M245.937103,216.495987 
	C244.784439,218.747955 242.848251,216.796753 241.300537,218.042603 
	C227.177002,218.111328 213.353363,218.054214 199.529739,218.001450 
	C191.999863,217.972717 191.999542,217.976044 191.999527,210.850525 
	C191.999405,143.543457 192.047241,76.236267 191.887070,8.929574 
	C191.876862,4.639015 193.054825,3.824532 197.081711,3.897495 
	C211.571304,4.160030 226.072037,4.178973 240.560822,3.895602 
	C245.104996,3.806727 246.091995,5.344998 246.084366,9.613496 
	C245.961349,78.419731 245.993988,147.226242 245.937103,216.495987 
z"/>
<path fill="#010101" opacity="1.000000" stroke="none" 
	d="
M297.882111,159.720917 
	C298.216492,164.237717 296.838531,167.525223 292.411774,168.698151 
	C290.693665,169.153397 290.107269,170.242935 289.566864,171.721313 
	C289.133850,172.905991 289.197540,174.749664 287.693939,175.027023 
	C279.326233,176.570526 281.918274,183.447845 281.051331,188.563751 
	C280.596283,191.248856 281.675171,192.847000 284.823425,193.060883 
	C290.205536,193.426544 290.431915,194.038910 288.176910,199.835449 
	C280.785828,194.922028 274.261841,189.252655 270.566101,181.093460 
	C274.646667,180.879044 276.582672,179.611435 278.767548,175.929642 
	C279.665009,174.417282 281.521973,173.538300 281.825867,171.211807 
	C282.437012,170.284866 282.919189,169.682251 283.680359,168.980835 
	C285.047302,169.762283 286.166962,172.123962 287.140442,168.780945 
	C287.692566,166.884903 289.003937,165.331177 289.784912,163.170197 
	C291.258789,160.751053 293.198059,159.338165 295.642426,158.010468 
	C296.747467,158.186600 297.277924,158.788651 297.882111,159.720917 
z"/>
<path fill="#010101" opacity="1.000000" stroke="none" 
	d="
M298.375000,160.000000 
	C297.050598,159.917740 296.258087,159.625519 296.006592,158.214401 
	C298.415619,155.263901 300.871857,152.644928 303.687408,149.642838 
	C306.139496,152.266922 308.476074,154.767380 310.930664,157.579315 
	C311.753479,159.491714 310.222412,159.766068 309.245789,160.757599 
	C307.611115,161.000000 306.222198,161.000000 304.416656,161.000000 
	C303.125061,160.973267 302.238007,161.002441 301.238159,160.226501 
	C300.250000,160.000000 299.500000,160.000000 298.375000,160.000000 
z"/>
<path fill="#010101" opacity="1.000000" stroke="none" 
	d="
M309.399567,161.007935 
	C308.934967,159.724014 309.876648,159.119812 310.877991,158.166138 
	C316.378693,160.692612 321.069611,164.685181 326.962799,166.436432 
	C327.874939,166.707504 328.796417,166.947098 329.875854,167.540100 
	C329.897614,169.203552 329.244781,170.149551 327.835114,169.896042 
	C323.519897,169.120026 319.302246,167.831238 314.838867,167.881424 
	C313.068390,167.901352 312.999908,166.312836 313.016235,164.971756 
	C313.043427,162.735031 312.425568,161.071777 309.399567,161.007935 
z"/>
<path fill="#010101" opacity="1.000000" stroke="none" 
	d="
M281.623108,171.027039 
	C282.331146,171.928040 283.424927,173.177322 282.260925,174.041061 
	C279.411163,176.155777 278.670990,178.384033 279.586182,182.040649 
	C280.283905,184.828491 277.246521,184.127472 275.731079,183.634430 
	C274.240234,183.149414 272.984741,181.940903 271.255188,181.003372 
	C273.832458,177.139679 277.549713,174.140182 281.623108,171.027039 
z"/>
<path fill="#010101" opacity="1.000000" stroke="none" 
	d="
M289.647064,163.007111 
	C290.833344,166.189148 287.586761,168.465286 287.777069,171.638779 
	C287.833038,172.571472 286.862793,172.895203 285.997467,172.871902 
	C283.786469,172.812363 284.096802,171.111481 283.972076,169.289429 
	C285.751953,166.964432 287.544464,165.046829 289.647064,163.007111 
z"/>
<path fill="#010101" opacity="1.000000" stroke="none" 
	d="
M410.029968,24.358786 
	C410.197052,23.946526 410.391907,23.967432 410.499329,24.075365 
	C413.964630,27.556366 419.804260,30.707060 419.808929,34.957024 
	C419.813049,38.675198 413.382416,40.910717 409.809082,43.823750 
	C407.178589,45.968216 404.601807,48.154263 401.398804,50.061226 
	C400.880798,45.778267 399.944946,41.189983 407.107422,41.783333 
	C409.693726,41.997585 409.776062,38.730057 409.905579,36.736618 
	C410.162384,32.782852 410.003815,28.802111 410.029968,24.358786 
z"/>
<path fill="#010101" opacity="1.000000" stroke="none" 
	d="
M301.044189,160.324738 
	C301.863159,160.158142 302.726349,160.316269 303.794739,160.737213 
	C302.862915,162.266556 301.863159,162.392426 301.044189,160.324738 
z"/>
<path fill="#FFFFFF" opacity="1.000000" stroke="none" 
	d="
M565.111206,154.448914 
	C565.864624,152.770157 567.270752,153.008896 568.578552,153.007339 
	C572.830627,153.002274 577.032715,153.925827 581.352112,153.090225 
	C584.322144,152.515640 586.299011,153.883987 585.334351,157.390244 
	C584.271301,161.254211 586.811279,161.257172 589.258850,160.891205 
	C591.542847,160.549683 593.760193,159.524048 596.112671,160.205643 
	C598.663147,160.944611 601.266113,161.491486 601.130188,165.241531 
	C601.042236,167.666931 602.530579,169.276932 605.308350,169.005692 
	C608.231384,168.720291 609.036682,170.800812 609.454773,172.995544 
	C610.064697,176.196747 608.785156,179.383698 609.394775,182.709381 
	C609.724670,184.508881 607.542725,185.152557 605.689392,185.001038 
	C602.720215,184.758301 600.730530,185.672424 601.004150,189.111923 
	C601.244507,192.133011 599.208557,193.157928 596.849365,193.850952 
	C596.062866,194.081985 594.483643,194.101807 594.486145,194.177383 
	C594.688538,200.228073 587.011169,200.054657 585.929260,205.121078 
	C585.017334,209.391464 578.624268,211.099091 572.602234,208.460541 
	C577.590393,203.927658 583.360352,200.242264 588.221985,195.350662 
	C594.235535,189.300034 598.831543,182.255051 603.408875,175.148804 
	C605.339050,172.152237 602.679382,171.754135 601.199219,171.071930 
	C589.255920,165.567490 577.251465,160.195587 565.111206,154.448914 
z"/>
<path fill="#FFFFFF" opacity="1.000000" stroke="none" 
	d="
M536.425903,169.058960 
	C536.760864,165.271500 535.986389,160.367798 542.463379,160.850281 
	C544.178528,160.978027 545.263794,159.531067 544.748108,157.785431 
	C543.484802,153.508575 545.879944,152.840729 549.204895,153.009720 
	C552.065308,153.155121 554.176208,152.532547 554.010376,149.024414 
	C553.904785,146.789520 554.520508,144.918961 557.236877,145.101135 
	C559.699097,145.266281 561.257324,146.507111 561.003296,149.273117 
	C560.942871,149.930847 560.985901,150.598068 560.969360,151.688248 
	C558.591675,151.456772 557.142517,152.320618 556.022034,154.536072 
	C552.007874,162.473373 544.997620,166.547287 536.425903,169.058960 
z"/>
<path fill="#FEFEFE" opacity="1.000000" stroke="none" 
	d="
M473.348450,17.827021 
	C473.003906,8.865614 473.048798,8.834168 483.769287,10.797084 
	C480.750702,13.583137 476.605957,14.747800 473.348450,17.827021 
z"/>
<path fill="#FFFFFF" opacity="1.000000" stroke="none" 
	d="
M569.658691,209.168030 
	C569.831116,210.448486 569.837158,211.787811 569.444031,212.997375 
	C569.015076,214.317001 569.108826,216.305420 567.342163,216.557938 
	C565.413635,216.833603 564.581543,215.221176 564.001404,213.237305 
	C565.391174,211.133682 568.082520,211.203094 569.658691,209.168030 
z"/>
<path fill="#FEFEFE" opacity="1.000000" stroke="none" 
	d="
M466.427124,22.923420 
	C464.428101,18.534554 464.894684,18.079031 471.687988,18.030966 
	C471.134766,20.545382 468.183197,20.822573 466.427124,22.923420 
z"/>
<path fill="#FFFFFF" opacity="1.000000" stroke="none" 
	d="
M561.646790,213.177505 
	C561.520325,216.895264 559.999146,218.820694 556.018311,216.233688 
	C557.737549,214.984818 559.515137,214.086792 561.646790,213.177505 
z"/>
<path fill="#FFFFFF" opacity="1.000000" stroke="none" 
	d="
M924.122070,100.372726 
	C919.189148,103.291412 913.883850,103.561737 908.817627,103.856880 
	C900.019836,104.369392 891.169556,103.924568 882.343628,104.048347 
	C879.891602,104.082733 878.898193,103.623291 878.928528,100.833771 
	C879.082397,86.677872 879.095703,72.518234 878.922974,58.362770 
	C878.885803,55.310333 880.023926,54.908749 882.646057,54.944389 
	C892.637817,55.080215 902.637756,54.790569 912.624878,55.044338 
	C931.324524,55.519489 940.125793,74.006363 934.054932,88.861359 
	C932.068787,93.721352 928.901367,97.461197 924.122070,100.372726 
z"/>
<path fill="#010101" opacity="1.000000" stroke="none" 
	d="
M295.550842,162.714996 
	C295.920624,164.074646 295.627380,164.894714 294.327637,164.768005 
	C293.995972,164.735687 293.442657,164.207352 293.452911,163.923584 
	C293.494171,162.780258 294.191925,162.277954 295.550842,162.714996 
z"/>
</svg>