<?xml version="1.0" standalone="no"?>
<!DOCTYPE svg PUBLIC "-//W3C//DTD SVG 20010904//EN"
 "http://www.w3.org/TR/2001/REC-SVG-20010904/DTD/svg10.dtd">
<svg version="1.0" xmlns="http://www.w3.org/2000/svg"
 width="849.000000pt" height="94.000000pt" viewBox="0 0 849.000000 94.000000"
 preserveAspectRatio="xMidYMid meet">

<g transform="translate(0.000000,94.000000) scale(0.100000,-0.100000)"
fill="#000000" stroke="none">
<path d="M0 470 l0 -350 143 0 c162 0 196 12 223 75 20 49 20 500 0 550 -25
60 -72 75 -231 75 l-135 0 0 -350z m266 249 c18 -19 19 -39 19 -256 0 -277 6
-263 -117 -263 l-78 0 0 270 0 270 78 0 c68 0 82 -3 98 -21z"/>
<path d="M680 775 l0 -45 50 0 50 0 0 45 0 45 -50 0 -50 0 0 -45z"/>
<path d="M3530 720 l0 -100 -91 0 c-116 0 -154 -16 -181 -78 -17 -38 -19 -62
-16 -190 3 -134 5 -150 26 -179 31 -44 68 -53 220 -52 l132 1 0 349 0 349 -45
0 -45 0 0 -100z m-2 -336 c-4 -181 -5 -184 -98 -184 -93 0 -95 4 -95 170 0
171 -1 170 118 170 l78 0 -3 -156z"/>
<path d="M4300 780 l0 -40 80 0 80 0 0 -310 0 -310 50 0 50 0 0 310 0 310 80
0 80 0 0 40 0 40 -210 0 -210 0 0 -40z"/>
<path d="M6620 775 l0 -45 50 0 50 0 0 45 0 45 -50 0 -50 0 0 -45z"/>
<path d="M8090 780 l0 -40 70 0 69 0 3 -284 3 -284 24 -26 c23 -25 30 -26 128
-26 l103 0 0 40 0 40 -80 0 -80 0 0 310 0 310 -120 0 -120 0 0 -40z"/>
<path d="M540 580 l0 -40 70 0 70 0 0 -210 0 -210 120 0 120 0 0 40 0 40 -70
0 -70 0 0 210 0 210 -120 0 -120 0 0 -40z"/>
<path d="M1175 606 c-42 -18 -60 -58 -59 -132 1 -101 27 -127 147 -141 l62 -8
3 -48 c5 -71 -4 -77 -114 -77 l-94 0 0 -41 0 -41 121 4 121 3 28 31 c54 61 51
175 -5 231 -29 29 -40 33 -85 33 -71 0 -90 12 -90 58 0 55 12 62 112 62 l88 0
0 40 0 40 -102 0 c-62 -1 -115 -6 -133 -14z"/>
<path d="M1723 600 c-55 -33 -63 -61 -63 -230 0 -169 8 -197 63 -230 26 -16
50 -20 135 -20 l102 0 0 40 0 40 -83 0 c-127 0 -127 0 -127 170 0 170 0 170
127 170 l83 0 0 40 0 40 -102 0 c-85 0 -109 -4 -135 -20z"/>
<path d="M2230 602 c-59 -32 -70 -66 -70 -232 0 -118 3 -151 18 -179 26 -52
71 -71 170 -71 164 0 192 36 192 250 0 214 -28 250 -192 250 -61 0 -92 -5
-118 -18z m196 -76 c17 -13 19 -27 19 -156 0 -166 -2 -170 -95 -170 -93 0 -95
4 -95 170 0 166 2 170 95 170 33 0 64 -6 76 -14z"/>
<path d="M2720 580 c0 -39 1 -40 35 -40 l35 0 0 -170 0 -170 -35 0 c-34 0 -35
-1 -35 -40 l0 -40 135 0 135 0 0 40 0 40 -55 0 -55 0 0 144 c0 182 4 188 109
194 l71 4 0 39 0 38 -170 0 -170 0 0 -39z"/>
<path d="M4929 597 c-51 -34 -61 -76 -57 -247 4 -211 22 -230 218 -230 l110 0
0 40 0 40 -98 0 c-120 0 -133 7 -140 78 l-5 52 137 0 136 0 -1 88 c-1 106 -15
150 -59 180 -28 19 -46 22 -120 22 -74 0 -92 -3 -121 -23z m195 -79 c9 -12 16
-42 16 -65 l0 -43 -91 0 -92 0 5 50 c7 69 19 80 89 80 48 0 60 -4 73 -22z"/>
<path d="M5420 580 c0 -39 1 -40 35 -40 l35 0 0 -170 0 -170 -35 0 c-34 0 -35
-1 -35 -40 l0 -40 135 0 135 0 0 40 0 40 -55 0 -55 0 0 144 c0 182 4 188 109
194 l71 4 0 39 0 38 -170 0 -170 0 0 -39z"/>
<path d="M5900 369 l0 -249 45 0 45 0 0 199 c0 168 2 202 16 215 17 18 42 20
64 6 12 -8 16 -45 18 -215 l3 -205 39 0 38 0 4 198 c3 211 8 232 52 232 43 0
46 -13 46 -227 l0 -203 45 0 45 0 0 205 c0 273 -9 295 -122 295 -30 0 -61 -7
-72 -15 -16 -12 -22 -12 -46 0 -18 9 -60 14 -123 14 l-97 -1 0 -249z"/>
<path d="M6480 580 l0 -40 70 0 70 0 0 -210 0 -210 120 0 120 0 0 40 0 40 -70
0 -70 0 0 210 0 210 -120 0 -120 0 0 -40z"/>
<path d="M7020 369 l0 -249 50 0 50 0 0 194 c0 228 -1 226 90 226 91 0 90 2
90 -226 l0 -194 51 0 51 0 -4 203 c-4 289 -11 297 -242 296 l-136 -1 0 -249z"/>
<path d="M7580 580 l0 -40 98 0 c113 0 132 -10 132 -73 l0 -37 -85 0 c-99 0
-136 -14 -160 -61 -22 -42 -29 -116 -16 -167 18 -65 53 -82 172 -82 55 0 100
5 106 11 8 8 17 8 31 0 11 -6 39 -11 61 -11 40 0 41 1 41 35 0 28 -4 36 -24
41 -24 6 -24 7 -28 168 -4 180 -10 199 -71 236 -27 17 -51 20 -144 20 l-113 0
0 -40z m228 -302 l-3 -73 -60 -3 c-98 -5 -105 -1 -105 62 0 75 13 86 101 86
l70 0 -3 -72z"/>
</g>
</svg>
